<?xml version="1.0" encoding="UTF-8"?>
<svg id="Layer_1" data-name="Layer 1" xmlns="http://www.w3.org/2000/svg" viewBox="0 0 472 176">
  <defs>
    <style>
      .cls-1 {
        fill: #302d28;
      }

      .cls-2 {
        fill: #00614a;
      }

      .cls-3 {
        fill: #00563e;
      }

      .cls-4 {
        fill: #000c07;
      }

      .cls-5 {
        fill: #fff;
      }

      .cls-6 {
        fill: #413c36;
      }

      .cls-7 {
        fill: #00130d;
      }

      .cls-8 {
        fill: #373531;
      }

      .cls-9 {
        fill: #211f1a;
      }

      .cls-10 {
        fill: #43403a;
      }

      .cls-11 {
        fill: #006056;
      }

      .cls-12 {
        fill: #003f2e;
      }

      .cls-13 {
        fill: #4b745a;
      }

      .cls-14 {
        fill: #00291b;
      }

      .cls-15 {
        fill: #625d57;
      }

      .cls-16 {
        fill: #9c9585;
      }

      .cls-17 {
        fill: #0b0b09;
      }

      .cls-18 {
        fill: #938e84;
      }

      .cls-19 {
        fill: #8c8477;
      }

      .cls-20 {
        fill: #4a463f;
      }

      .cls-21 {
        fill: #23211c;
      }

      .cls-22 {
        fill: #0d0c0a;
      }

      .cls-23 {
        fill: #1c1a15;
      }

      .cls-24 {
        fill: #001e0e;
      }

      .cls-25 {
        fill: #1d1e1b;
      }

      .cls-26 {
        fill: #080605;
      }

      .cls-27 {
        fill: #504e48;
      }

      .cls-28 {
        fill: #050403;
      }

      .cls-29 {
        fill: #01241d;
      }

      .cls-30 {
        fill: #6e6a61;
      }

      .cls-31 {
        fill: #91897a;
      }

      .cls-32 {
        fill: #002018;
      }

      .cls-33 {
        fill: #7d786f;
      }

      .cls-34 {
        fill: #5d5850;
      }

      .cls-35 {
        fill: #007256;
      }

      .cls-36 {
        fill: #69665f;
      }

      .cls-37 {
        fill: #00774b;
      }

      .cls-38 {
        fill: #58544d;
      }

      .cls-39 {
        fill: #003d2c;
      }

      .cls-40 {
        fill: #007854;
      }

      .cls-41 {
        fill: #006759;
      }

      .cls-42 {
        fill: #007b53;
      }

      .cls-43 {
        fill: #011c14;
      }

      .cls-44 {
        fill: #37332e;
      }

      .cls-45 {
        fill: #524f48;
      }

      .cls-46 {
        fill: #00150e;
      }

      .cls-47 {
        fill: #5c554d;
      }

      .cls-48 {
        fill: #001712;
      }

      .cls-49 {
        fill: #006f4f;
      }

      .cls-50 {
        fill: #006446;
      }

      .cls-51 {
        fill: #01100e;
      }

      .cls-52 {
        fill: #091215;
      }

      .cls-53 {
        fill: #151513;
      }

      .cls-54 {
        fill: #312e2a;
      }

      .cls-55 {
        fill: #003d37;
      }

      .cls-56 {
        fill: #78736a;
      }

      .cls-57 {
        fill: #00735d;
      }

      .cls-58 {
        fill: #3d3831;
      }

      .cls-59 {
        fill: #857f73;
      }

      .cls-60 {
        fill: #767066;
      }

      .cls-61 {
        fill: #00371d;
      }

      .cls-62 {
        fill: #002c21;
      }

      .cls-63 {
        fill: #4d4944;
      }

      .cls-64 {
        fill: #005047;
      }

      .cls-65 {
        fill: #6f675d;
      }

      .cls-66 {
        fill: #000a07;
      }

      .cls-67 {
        fill: #12110d;
      }

      .cls-68 {
        fill: #2a2824;
      }

      .cls-69 {
        fill: #000f07;
      }

      .cls-70 {
        fill: #00221a;
      }

      .cls-71 {
        fill: #00473f;
      }

      .cls-72 {
        fill: #2b2722;
      }

      .cls-73 {
        fill: #536863;
      }

      .cls-74 {
        fill: #000302;
      }

      .cls-75 {
        fill: #5e5a54;
      }

      .cls-76 {
        fill: #001c14;
      }

      .cls-77 {
        fill: #25231d;
      }

      .cls-78 {
        fill: #061819;
      }

      .cls-79 {
        fill: #060d0d;
      }

      .cls-80 {
        fill: #010302;
      }

      .cls-81 {
        fill: #00322a;
      }

      .cls-82 {
        fill: #181915;
      }

      .cls-83 {
        fill: #666157;
      }

      .cls-84 {
        fill: #003426;
      }

      .cls-85 {
        fill: #004d3a;
      }

      .cls-86 {
        fill: #837a6e;
      }
    </style>
  </defs>
  <path class="cls-74" d="m132.93,85.1c-8.23-2.76-12.38-8.87-15.19-16.8-1.08-3.04-4.87-5.11-8.64-8.82-1.23-12.52-.58-18.62,2.24-19.95v-7c4-.85,6.06-4.25,5.45-7.74-1.25-7.19,3.17-11.37,7.02-15.97.57-.68,2.11-.86,3.16-.78,4.19.32,6.08-1.73,6.26-5.46,2.67-.6,5.21-1.16,7.76-2.16,1.08-.43,2.14-.43,3.61-.43.4.83.4,1.66.4,2.77,10.64-2.36,20.41.96,30.15,4.25,3.16,1.07,6.18,2.56,9.27,3.86,4.76,1.99,9.78,7.89,11.42,13.6,1.44-.19,2.94-.38,5.32-.68-.44,1.96-.78,3.48-1.25,5.61.78.2,2.26.57,3.4.85,2,6.92,3.95,13.69,6.05,20.95.48-1.28.8-2.12,1.12-2.97,0,6.38,3.32,12.95-1.2,19.04-.34.46-.21,1.27-.27,1.92-1,10.29-5.96,15.64-16.51,19.12-4.47,1.47-8.47,4.34-12.77,6.38-1.53.73-3.33.89-5.01,1.3-2.16.53-5.22-1.61-6.36,2.53-.17.63-6.4.77-6.66.02-1.68-4.76-5.63-2.85-7.75-2.25-4.31,1.21-7.58-.04-10.73-2.32-3.53-2.55-6.81-5.43-9.85-8.56,3.39.76,6.83,1.35,9.39,3.18,4.75,3.39,9.61,4.82,15.69,3.39,3.13.33,5.84.66,8.99,1,10.61-.36,20.21-1.79,24.82-12.97.42-.01.58-.01,1.09-.05,1.45-1.34,2.55-2.65,3.95-4.11,1.03-1.75,1.77-3.34,2.56-5.24.1-.7.16-1.11.53-1.58.77-.72,1.22-1.36,1.79-2.26.37-.74.62-1.22,1.15-1.85,1.06-1.09,1.85-2.04,2.98-3.15,2.01-2.86,3.22-5.53-.23-8.22-.04-1.09-.06-1.82-.08-2.96-1.65-4.47-3.32-8.54-5-12.97-1.01-2.12-2.01-3.87-3.04-5.96-4.42-8.13-10.25-14.43-18.77-17.61-1.64-.61-3.82.23-5.76.4.52,2.18,1.04,4.37,1.62,6.96.38,3.48.71,6.56,1.06,10.02.34,2.79.65,5.19.94,8.04-.02,2.81-.02,5.17-.05,7.93-.28,2.14-.54,3.9-.86,6.03-.03,1.13,0,1.89-.1,3.02-.54,2.7-.96,5.03-1.63,7.65-.74,2.81-1.25,5.31-1.98,8.04-.65,1.43-1.08,2.64-1.75,4.02-1.37.69-2.5,1.2-3.66,1.42-.59-1.04-1.16-1.8-1.71-2.95-.66-2.52-1.32-4.66-2.01-7.01-.02-.22-.13-.64-.11-1.02-.02-1.14-.06-1.9-.11-3.04-.68-2.46-1.35-4.54-2.03-6.99-.03-1.11-.05-1.84-.06-2.95,0-1.13,0-1.88,0-3.09,0-5.49,0-10.51,0-15.93.66-3.12,1.31-5.84,1.98-8.94.69-2.81,1.36-5.23,2.31-7.87,4.65-8.19,2.18-9.71-4.7-9.84-4.23-.07-8.47-.02-12.71.06-8.1.16-15.26,8.07-17.23,15.91-1.12,4.49-5.01,9.29-9,11.8-5.43,3.41-8.39,10.47-4.65,16.65,0,1.12,0,1.87.01,2.98.67,1.12,1.33,1.88,2.03,3.02.83,4.22,2.22,7.67,6.07,9.94.72,1.42,1.31,2.55,1.93,4,.69.77,1.34,1.21,1.97,1.67-.02.02.01-.02.04.34,1.31,3.83,2.59,7.3,3.88,10.77Z"/>
  <path class="cls-72" d="m245.03,174.82c-.32.2-.63.41-.99.89-3.07.28-6.1.28-9.59.28-.48-.4-.5-.8-.15-1.6,2.48-.74,4.57-1.08,7.03-1.45,1.31-2.29,2.67-4.48,3.06-6.83.26-1.54-.88-3.31-1.15-5.18.42-.77.6-1.35,1.06-2.21.42-2.77.56-5.25.69-8.07,0-.77,0-1.22.38-1.73.79-1.69,1.21-3.31,1.63-5.27,0-.78,0-1.22-.04-2.02-2.7-3.43-5.36-6.5-8.46-9.59-2.43,0-4.44,0-6.8-.02-1.15.63-1.94,1.27-2.71,1.94.01.02-.03,0-.39,0-1.09.01-1.82.02-2.77.02-.23,0-.68.02-.68.02-.06-.45-.11-.91.3-1.74,1.74-1.48,3.01-2.59,4.28-3.69.83-.09,1.67-.18,3.17-.34.97-.1,1.27-.12,1.57-.14.4.01.8.03,1.8.32,2.31.37,4.02.48,5.77.92,1.01,1.11,1.99,1.88,3.25,2.78,1.09,1.05,1.91,1.96,2.73,3.26,1.01,3.85,2.02,7.3,3.03,10.75-.69,3.36-1.38,6.73-2.33,10.64-.45.8-.59,1.08-.66,1.38,0,0,0,.44-.43.68-.99,1.2-2.09,2.2-2.02,3.11.29,3.98.91,7.93,1.42,11.89,0,0-.43.17-.87.27-.75.21-.97.42-1.11.72Z"/>
  <path class="cls-54" d="m210.91,163.98c.44-1.25.88-2.5,2.02-3.86,4.21-.97,7.7-2.23,11.22-.2,0,0-.1.02-.03.21.17.55.4.76.76.85,0,0,.16.41.24.87.3.68.53.91.76,1.13.34.42.68.85,1.16,1.79.38.75.62.98.86,1.21.05.76.1,1.53-.28,2.71-2.82,2.72-5.22,5.01-7.62,7.31h-11.54c-.76-.47-1.06-.93-.94-1.76,2.36-.65,4.39-.7,6.24-1.29,2.1-.68,4.41-1.44,5.95-2.89,2.26-2.13,2.15-4.58-1.42-5.37-2.39-.53-4.91-.49-7.36-.71Z"/>
  <path class="cls-26" d="m453.96,109.14c-1.31-.72-2.63-1.43-3.94-2.15.95-1.13,1.67-2.79,2.88-3.29,2.9-1.21,6.17-1.57,9.02-2.86,1.88-.85,3.24-2.8,4.92-4.14.58-.46,1.45-.58,3.03-1.16.48,3.99.91,7.57,1.73,11.31.4,2.19.4,4.24.4,6.72-.94.68-1.88.92-2.78.5,1.37-5.81-.27-9.57-4.45-10.98-2.94-.99-9.32,2.59-10.81,6.06Z"/>
  <path class="cls-17" d="m0,76.4c1.3-3.2,2.6-6,3.9-8.8.64-.17,1.27-.34,1.91-.51,2.66,3.05,5.33,6.11,8.18,9.7.33.84.55,1.06.85,1.2,0,0,.16.43.15.97-.34,1.04-.67,1.54-1.31,1.89-5.87-4.95-7.26-5.02-13.68-.85v-3.6Z"/>
  <path class="cls-53" d="m0,80.33c6.43-4.51,7.81-4.43,13.65.87-.05,1.65-.38,2.79-.7,3.93-4.89,2.35-9,1.49-12.61-3.03-.34-.54-.34-.98-.34-1.76Z"/>
  <path class="cls-22" d="m220.43,176c1.97-2.3,4.36-4.59,7.11-6.93-.27,2.03-.89,4.1-1.52,6.55-1.73.38-3.44.38-5.58.38Z"/>
  <path class="cls-80" d="m369.1,80.06c-.24,2.47-.48,4.95-.72,7.37-5.95,1.8-13.23,2.42-18.42,6.04-4.53,3.16-8.55,2.47-12.75,2.38-9.27-.21-18.53-1.17-27.78-1.89-.83-.06-2.1-.42-2.36-1.01-2.69-5.88-9.29-7.4-13.19-11.93-.85-.98-2.8-1.01-4.63-1.6v-11.33c-2.2-1.02-6.1-.56-3.45-4.87.44-.71-1.26-2.73-1.81-3.81.98-4.16,1.82-8.53,3.07-12.79.89-3.04,2.27-5.94,3.57-8.84.52-1.15,2.07-2.16,2.02-3.19-.26-5.87,4.38-8.23,7.75-11.55,1.32-1.3,2.36-2.88,3.82-4.67.19.18.9.85,1.38,1.31,3.28-3.16,6.33-6.58,9.92-9.29,1.25-.95,3.94.28,5.79-.22,4.32-1.15,8.45-3.08,12.8-3.98,1.76-.36,3.87,1.5,5.88,1.72,5.06.55,10.16,1.02,15.24,1,6.53-.02,11.44,3.77,16.91,6.33,1.64.77,3.87.29,5.49,1.09,6.14,3.03,5.46,9.6,7.41,14.83.64,1.72,1.86,3.23,2.79,4.84.42.73.88,1.47,1.14,2.26.7,2.12,1.37,4.25,1.92,6.41.2.78.14,1.68,0,2.48-.06.34-.97.56-.99.87-.43,6.81-4.75,12.72-5.36,19.04-.4,4.09-2.51,6.52-3.88,9.51-2.05,4.47-6.25,5.19-11.17,3.11,3.68-5.74,7.98-11.02,11.78-16.64,4.38-6.48,4.41-11.41,1.01-16.16.72-.69,1.19-1.25,1.68-2.23-.84-10.29-5.2-18.55-12.25-25.25-1.92-1.82-5.1-2.32-7.76-3.79-2.35-1.45-4.71-3.58-6.92-3.45-9.02.56-18.05,1.54-26.98,2.91-4.78.74-5.88,3.87-4.02,9.2.34.77.66,1.23.97,2.13.33,2.81.67,5.19,1,7.96.33,2.13.66,3.87.99,6.07.28,12.76.36,25.03-5.34,36.5-2.47-4.69-4.57-9.33-6.66-14.37-.66-2.88-1.63-5.33-1.94-7.85-.83-6.98-1.4-14-2.05-21-.41-4.45-3.2-6.25-7.44-4.54-1.42,0-2.45.01-3.64-.25-.69.25-1.23.79-1.9,1.6-.48.99-.83,1.7-1.49,2.46-.72.69-1.13,1.34-1.6,2.33-5.41,8.08-8.69,16.55-7.82,26.04.41,4.43,1.5,9.09,7.23,10.66,3.12,3.02,5.88,5.98,8.69,9.3,1.35,1.12,2.65,1.88,4.29,2.65.77,0,1.21,0,1.7.33.69.76,1.34,1.2,2.4,1.65,1.8,0,3.18,0,4.72.33,3.49,4.99,9.05,3.11,13.37,4.81,8.54,3.36,15.25-2.26,22.66-4.42.4-.12.55-1.11,1.08-1.8.75-.37,1.24-.63,2.13-.9,4.17-1.31,7.94-2.62,11.7-3.93Z"/>
  <path class="cls-10" d="m64.24,116.94s.41-.03.59.38c1.47,1.16,2.75,1.89,4.03,2.63,7.5,3.33,14.39,8.18,22.98,9.87.17.81.17.99-.15,1.32-1.77,2.08-3.24,4.02-4.71,5.96-4.3,2.95-9.11,3.21-14.14,3.07-1.24-.03-2.43,2.01-3.82,2.77-2.51,1.39-5.15,2.53-7.72,3.16.95-1.87,1.75-3.28,2.87-4.34,2.17-2.04,4.52-3.89,7.16-5.8,1.14-.64,1.92-1.29,2.69-1.96-.01-.02.02.01.4,0,2.07-1.11,3.85-2.12,5.36-3.43.22-.19-.57-2.37-1.31-2.7-6.14-2.78-12.38-5.34-18.52-8.34,1.47-1.11,2.88-1.86,4.28-2.61Z"/>
  <path class="cls-23" d="m287.99,142.08c-1.03-.68-2.07-1.36-3.85-2.05-1.54-.02-2.33-.03-3.13-.44.27-5.33-3.35-6.48-7.14-7.86-.73-.73-1.31-1.22-1.49-1.72,1.19-.03,1.98-.05,2.77-.07,9.6,1.99,19.21,3.89,28.76,6.1,1.19.28,3.06,2.68,2.78,3.36-1.88,4.71-4.12,9.29-6.59,13.72-.38.68-2.53.39-3.81-.05,1.3-3.81,3.38-6.98,3.59-10.27.29-4.64-4.41-3.95-7.29-4.65-2.79-.68-4.91.44-4.6,3.91Z"/>
  <path class="cls-63" d="m106.96,131.11c.47-.05.94-.11,1.82.11.67.15.92.03,1.17-.1.78-.07,1.55-.13,2.76.1.71.15.98,0,1.25-.13.77-.06,1.54-.12,2.94.25,4,.56,7.42.45,10.75.93,1.2.17,2.2,1.75,3.06,2.78-.4.37-.58.65-1.06.94-.51.01-.72.02-1.36.03-3.39.02-6.34.03-9.73,0-3.01-.35-5.58-.79-8.17-.97-3.1-.21-4.55.85-2.47,4.32.8,1.42,1.54,2.51,2.24,3.84-.04.24-.09.72-.51.75-3.5-.38-5.18.68-5.03,4.09-2.19.35-3.99.66-5.79.98-4.12.23-4.82-3.15-6.5-6.36-.31-1.23-.3-1.94-.13-2.88,1.66-.42,3.16-.6,4.93-.78.46,0,.65-.02,1.07.18-.86,1.01-1.96,1.81-4.43,3.62h8.38c-.4-1.95-.81-3.9-1.04-6.14,2.06-2.04,3.95-3.8,5.85-5.56Z"/>
  <path class="cls-47" d="m153.98,132.11c.46-.05.91-.1,1.73.24.98.83,1.6,1.26,2.28,2.04,4.82,7.51.39,17.03-7.97,17.6-.01.02.02-.01,0-.26-.19-.52-.35-.78-.52-1.04-.17.44-.33.88-.77,1.53-1.02,1.68-1.94,3.09-2.47,4.63-1.62,4.64-4.67,6.57-10.09,5.82.04-1.05.09-1.74.32-2.57.43-.65.68-1.16,1.34-1.77,6.93-1.23,9.52-6.88,6.3-12.86,1.34-1.34,2.53-2.41,4.04-3.35,1.74,1.69,3.16,3.23,4.55,4.75,6.57-4.23,6.73-5.08,2.13-10.55-.32-.38-.55-.82-.82-1.61,0-1.11-.02-1.85-.04-2.59Z"/>
  <path class="cls-16" d="m168,151c.23-1.44.46-2.87,1.11-4.6,4.8-1.2,6.76-4.21,7.57-7.99.66.46,1.15.56,1.93.82,2.31,1.03,4.34,1.9,6.42,3.09.67.78,1.28,1.24,1.91,2.11.03,1.46.04,2.52-.2,3.56-.44-.02-.62-.01-1.11.05-.44,1.03-.56,2-.68,3.2,0,.23-.02.69-.4.71-1.43.04-2.47.07-3.91.09-4.03.42-7.65.84-11.4,1.03-.49-.84-.86-1.45-1.23-2.05Z"/>
  <path class="cls-21" d="m404.98,128.13c2.4-.71,4.79-1.42,7.77-1.98,5.45.39,10.32.63,15.22,1.15.04.47.05.65.07.84-.01,2.33-.02,4.67-.47,7.44-3.46,1.57-3.67,3.27-1.45,5.46-1.14,1.26-2.28,2.52-3.78,3.38-.87-4.91-1.37-9.43-1.8-13.33-7.4-5.31-11.91-.38-16.9,3.76-1.32-1.22-2.35-2.29-3.34-3.34,1.88-1.36,3.28-2.37,4.68-3.39Z"/>
  <path class="cls-8" d="m48.17,107.96c2.4,1.34,4.85,2.61,7.17,4.07.48.3.49,1.33.53,2.7-1.38,1.21-2.58,1.74-4.13,2.24-2.24-1.55-3.95-3.4-6.07-4.44-1.13-.56-3.76-.26-4.3.57-1.91,2.95-3.91,6.21-1.34,10.22.4.79.77,1.26,1.14,1.73-1.24.98-2.47,2.71-3.73,2.73-1.13.02-2.56-1.66-3.36-2.92-.73-1.14-.78-2.72-.68-4.49,2.17-3.71,3.88-7.04,5.76-10.66,1.75-1.49,3.34-2.68,4.92-3.87,0,0,.36.05.89.11.76.04,1,.01,1.23,0,.34-.03.59.1.9.88.44.71.75.92,1.05,1.14Z"/>
  <path class="cls-77" d="m378.96,145.29c-.75-.45-1.5-.91-2.65-1.6-.11,1.5-.19,2.54-.56,4.08-.5.76-.63,1.05-.68,1.38,0,0-.01-.08-.35-.14-1.59-.36-2.84-.66-4.3-1.24-.71-6.02-5.91-6.59-9.61-8.82.55-1.02-.87-4.11,2.95-2.21.89-.05,1.11-.27,1.21-.6,1.05-.06,2.11-.12,3.82.08,4.12.63,7.94,2.4,10.2-2.1.76-.07,1.51-.13,2.66.08.79.84,1.17,1.4,1.45,2.3-1.98,2.44-5.57,3.77-3.63,7.95-.3.45-.41.65-.52.84Z"/>
  <path class="cls-60" d="m70.98,135.97c-2.28,1.93-4.63,3.77-6.8,5.81-1.13,1.06-1.92,2.47-3.06,4.02-.19.29-.64.2-.88-.25,1.66-4.55,3.55-8.65,5.66-13.21-3.28-1.81-6.52-3.6-9.76-5.38-.08-.7-.16-1.4.08-2.44.86-.71,1.41-1.09,2.35-1.48,3.7,1.35,6.91,3.06,10.33,3.99,3.84,1.04,5.55,3.1,5.15,7,0,0-.04-.03-.38-.03-1.12.66-1.9,1.31-2.69,1.96Z"/>
  <path class="cls-38" d="m360.49,138.94c4.01,2.24,9.22,2.81,10.08,9.13.72,1.36,1.07,2.14,1.05,2.97-1.49,2.73-2.61,5.43-3.73,8.12-1.25-.49-2.5-.99-3.55-1.87,1.77-4.94.6-8.35-3.87-10.27-.83,1.01-1.65,1.98-2.72,2.71-2.6-4.1-1.88-7.52,1.18-10.62.41-.06.83-.12,1.55-.17Z"/>
  <path class="cls-25" d="m15.97,96.83c-3-2.76-5.33-5.72-2.58-10.5,1.87-1.75,3.33-3.06,4.78-4.38,1.56,1.43,3.11,2.85,4.85,4.81.29.86.51,1.09.83,1.22,5.88,4.17,6.43,5.82,3.54,11.43-2.36-4.5-6.79-6.76-10.64-5.27-.53.2-.53,1.76-.77,2.7Z"/>
  <path class="cls-15" d="m287.97,142.43c-.29-3.82,1.82-4.94,4.61-4.26,2.88.7,7.58,0,7.29,4.65-.2,3.29-2.29,6.46-3.74,9.97-2.76-2.09-5.41-4.38-7.8-6.92-.57-.61-.27-2.04-.36-3.44Z"/>
  <path class="cls-19" d="m235.97,160c-2.66-2.43-5.31-4.86-7.99-8.03-.07-1.81-.11-2.87.19-4.06,1.69-1.37,3.05-2.6,4.56-3.98.79.55,1.53,1.14,2.34,1.61.95.54,1.96.97,3.21,1.68.4,1.41.53,2.58.33,3.82-2.24,1.75-2.35,3.11.36,4.38,0,1.75-.01,3.1-.39,4.51-1.11.07-1.86.07-2.6.07Z"/>
  <path class="cls-10" d="m303.13,169.02c.69-4.24,1.38-8.48,2.87-12.87,3.62-.16,6.43-.16,9.46.08.49,1.29.76,2.33.63,3.48-1.14.4-2.5.64-2.53.99-.55,6.52-5.35,7.58-10.43,8.32Z"/>
  <path class="cls-44" d="m136.15,163.01c5.42.4,8.47-1.53,10.09-6.17.54-1.54,1.45-2.95,2.73-4.63.71-.22.88-.23,1.05-.23,0,0-.03.03.01.38,1.03,2.79,2.02,5.23,2.99,8.02-.04.81-.07,1.28-.09,1.74-1.43-.15-2.86-.3-4.39-.46-1.91,4.63-8.5,7-13.08,4.27-2.24-1.33-6.8-1.02-4.59-6.36.12-.47.23-.53.5-.42.61.29.95.46,1.47.92.81.46,1.43.65,2.1,1.16.43.81.81,1.29,1.2,1.78Z"/>
  <path class="cls-26" d="m358.53,139.06c-2.66,3.15-3.37,6.58-.74,11.04.27,1.11.24,1.6.21,2.09-.46-.36-.92-.72-1.79-1.49-1.33-.23-2.25-.06-3.16.12.72.25,1.45.5,2.17.75.26,2.53.52,5.05.44,7.98-1.47-1.17-2.55-2.79-3.75-4.31-1.19-1.5-2.5-2.9-3.8-4.73-1.09-3.47-2.15-6.54-3.2-9.62,1.13-.58,2.25-1.15,3.73-1.36,1.11,3,1.87,5.62,2.63,8.24.56-.08,1.13-.16,1.69-.24.35-2.8.69-5.61,1.04-8.41,1.37-.04,2.74-.08,4.52-.07Z"/>
  <path class="cls-58" d="m153.05,160.03c-.99-2.44-1.98-4.88-3-7.69,8.32-.92,12.75-10.45,8.29-17.93,2.13,1.66,3.95,3.65,5.77,5.64-1.32,3.43-2.64,6.87-4.31,10.78-.57.72-.7,1.01-.74,1.34,0,0,.01.38-.25.79-.47,1.33-.69,2.25-.89,3.38,0,.2.02.6.01.85-.01.42-.01.59-.34.81-1.73.72-3.13,1.38-4.53,2.04Z"/>
  <path class="cls-18" d="m56.07,127.43c3.31,1.32,6.55,3.1,9.83,4.92-2.11,4.56-4.01,8.66-5.88,13.14-3.19.39-4.07-1.44-4-4.34.1-4.42,0-8.83.05-13.72Z"/>
  <path class="cls-26" d="m157.91,156.12c.21-.92.42-1.85.93-2.99,2.99-.86,5.69-1.5,8.78-2.14.75.61,1.12,1.21,1.63,2.4.34,1.26.54,1.93.75,2.95,1.32,2.47,2.63,4.58,4.07,7.01.44,1.15.75,1.98,1.06,2.81-.09.53-.18,1.05-.31,1.79-.82-1.23-1.4-2.09-2.61-3.03-1.16-.37-1.68-.65-2.25-1.29-1.73-3.18-3.42-6.01-5.1-8.84-.62.04-1.24.07-1.86.11-2.02,4.36-4.04,8.71-6.29,13.24-.37.71-.51,1.25-.67,2.09,0,.49,0,.69.01.89-.46-.65-.92-1.3-1.68-2.34.97-3.88,2.25-7.37,3.53-10.86,0-.17,0-.33.2-.81.06-.54-.07-.77-.2-1Z"/>
  <path class="cls-6" d="m220.14,140.06c-1.78,5.8-2.82,12.06-9,15.21-.63.32-1.62-.07-2.65-.53.05-.84.32-1.28.92-1.78,1.45-1.24,2.75-2.3,3.65-3.63,3.26-4.84,2.44-9.17-2.14-11.66-1.73-1.16-3.33-2.03-4.93-3.27,0-1.36,0-2.35,0-3.34.76-.05,1.51-.09,2.62.31,4.08,3.2,7.8,5.95,11.52,8.7Z"/>
  <path class="cls-63" d="m210.57,164.12c2.8.08,5.31.04,7.7.57,3.57.79,3.68,3.24,1.42,5.37-1.54,1.45-3.85,2.22-5.95,2.89-1.85.6-3.87.65-6.21,1.01.64-3.19,1.67-6.44,3.03-9.84Z"/>
  <path class="cls-6" d="m187.99,173.93c-1.08.04-2.16.08-3.74-.18-.76-.5-1.04-.64-1.35-.73-1.96-1.75-3.92-3.49-5.57-5.63,4.06.05,3.96-2.99,4.99-5.42,1.06-.46,1.85-.76,2.9-.76,2.02.46,3.78.55,5.51.81,2.36.35,4.37,1.02,2.01,3.84-1.56-.42-3.24-1.32-3.95-.83-.89.62-1.29,2.36-1.36,3.65-.09,1.73.35,3.49.56,5.24Z"/>
  <path class="cls-9" d="m368.07,159.51c.94-3.05,2.06-5.75,3.84-8.37,1.19.36,1.72.65,2.24.93.4.63.8,1.26,1.61,2.17.59.53.82.68,1.11.74.65,1.62,1.29,3.23,2.36,5.9-2.96,1.5-6.15,3.11-9.57,4.84-.61-2.54-1.01-4.2-1.59-6.21Z"/>
  <path class="cls-45" d="m379.67,144.19c-2.13-3.92,1.45-5.24,3.75-7.74,1.45-.65,2.48-.92,3.73-.94,1.1.33,1.97.41,3.19.54,1.79,1.7,3.23,3.36,4.68,5.02-.07,1.86-.13,3.72-.89,5.75-1.51-1.2-2.32-2.58-3.13-3.95.28-.49.57-.98.85-1.47-2.27.24-4.59.29-6.81.78-1.84.4-3.58,1.32-5.36,2.01Z"/>
  <path class="cls-60" d="m337.92,151.01c-.29-.48-.59-.96-.55-2,1.19-6.08,4.72-3.81,7.25-3.47.52,4.82.99,9.2,1.46,13.59,0,0-.03-.09-.21-.03-.49.19-.7.41-.81.72-1.42-.51-2.85-1.02-4.71-1.96-1.12-1.62-1.8-2.81-2.48-4,0,0,.07-.5.4-.84.11-.9-.12-1.46-.35-2.02Z"/>
  <path class="cls-45" d="m258.16,136.98c-.05-.45-.1-.89.36-1.66,5.83.35,11.15,1.02,16.53,2.05,1.03,3.36,2.39,6.3,2.83,9.38.46,3.25.05,6.62-.02,10.26.03.51.1.71.17.91,0,0-.36.17-.95.09-1.1-.12-1.62-.15-2.13-.63.03-4.27.12-8.09.03-11.9-.12-5.47-2.15-7.32-7.52-7.52-3.11-.12-6.2-.64-9.3-.98Z"/>
  <path class="cls-59" d="m266.88,155.88c-1.89-2.34-3.79-4.67-5.78-7.71-.09-1.51-.08-2.33.31-3.11,1.96.23,3.65.88,5.1.53,3.85-.94,5.13.16,4.66,4.15-.16,1.34,1.15,2.86,1.8,4.66.01,1.11.02,1.85-.18,2.69-.46.26-.65.48-1.12.75-1.82-.66-3.3-1.31-4.77-1.95Z"/>
  <path class="cls-1" d="m193.05,166.01c2.04-2.97.04-3.64-2.32-3.99-1.74-.26-3.5-.34-5.38-1.06.44-1.06,1.01-1.56,1.68-1.89.37.06.64-.05.91-.13,0,.04-.04-.03.37,0,2.5.37,4.59.72,6.9,1.18.49.31.68.57.83,1.26,1.99,1.12,3.94,1.87,5.88,2.61.05,1.08.1,2.16-.19,3.8-.44,1.15-.55,1.73-.67,2.32,0,0,.01-.08-.32-.08-1.8,1.29-3.26,2.57-4.73,3.85-.45.05-.89.1-1.68-.29-.66-1.82-.97-3.21-1.28-4.96,0-1.12,0-1.87.01-2.61Z"/>
  <path class="cls-36" d="m379.48,144.46c1.98-.95,3.71-1.87,5.55-2.27,2.22-.49,4.54-.54,6.81-.78-.28.49-.57.98-.85,1.47.81,1.37,1.63,2.75,2.8,4.16-5.62,5.49-7.67,5.33-14.71-1.43-.02-.5.09-.69.39-1.14Z"/>
  <path class="cls-20" d="m420.05,145.15c-.47.27-.95.54-1.77.36-.65-1.55-.79-2.73-1.28-3.75-.73-1.53-1.71-2.95-2.58-4.41-1.26,1.14-2.62,2.19-3.74,3.45-.49.55-.49,1.54-.71,2.33-1.33-1.43-2.66-2.85-3.8-4.93,1.11-1.49,1.96-2.42,2.96-3.14,1.48-1.06,3.49-3.1,4.53-2.71,2.04.76,4.25,2.59,5.12,4.55,1.09,2.46.9,5.48,1.27,8.26Z"/>
  <path class="cls-45" d="m227.82,148.04c.04,1.06.09,2.12.15,3.57-1.31-3.01-2.64-6.42-3.55-10.27,1.79-2.75,3.16-5.06,4.54-7.37,0,0,.04.03.38.02,1.13-.65,1.93-1.29,2.72-1.93,2.01,0,4.01,0,6.5.34,1.13,1.77,1.78,3.19,2.1,4.58-1.43-.02-2.54,0-4.08,0-3.9.11-7.98-.65-7.86,5.22-.47,2.1-.68,3.97-.89,5.84Z"/>
  <path class="cls-44" d="m420.38,145.1c-.69-2.72-.51-5.75-1.6-8.21-.87-1.95-3.08-3.79-5.12-4.55-1.04-.39-3.04,1.65-4.53,2.71-1,.72-1.85,1.65-2.98,2.78-.5.11-.79-.06-1.24-.76-.43-1.05-.71-1.57-.99-2.08,4.7-4.28,9.21-9.21,16.61-3.9.43,3.9.93,8.42,1.45,13.35-.41.47-.85.53-1.62.65Z"/>
  <path class="cls-63" d="m240.97,172.98c-2.1.34-4.19.68-6.7,1.12-.42.1-.36.06-.39-.18-.27-.45-.52-.68-.77-.9.62-2.75,1.24-5.5,2.21-8.62,1.94-.57,3.54-.76,4.6-.89,4.89,2.99,1.09,6.33,1.06,9.46Z"/>
  <path class="cls-17" d="m44.05,105.48c-1.54,1.55-3.13,2.74-5.26,4.23-2.25.62-3.96.95-5.67,1.27.51-3.89,1.03-7.79,1.7-12.89,3.64,2.78,6.41,4.91,9.23,7.39Z"/>
  <path class="cls-72" d="m329.11,148.05c-.41,4.52-.57,9.09-1.37,13.55-.33,1.87-2,3.51-3.42,4.97-1.08-5.69,1.73-11.61-2.89-16.73-.26-.46-.36-.64.06-.85,1.21.03,1.91.08,2.91.1.73-.67,1.15-1.31,1.54-1.99-.02-.04,0-.12.26-.21.77-.36,1.28-.62,1.81-.57.38.79.74,1.26,1.09,1.74Z"/>
  <path class="cls-53" d="m127.14,158.06c-.04.44-.08.88-.4,1.77-.49.7-.63.99-.69,1.31,0,0-.03.45-.52.64-5.22-.12-9.95-.43-14.67-.73-1.06-.35-2.11-.7-3.51-1.45-.68-1.14-1.02-1.88-1.36-2.87,0-.25.04-.75.33-.87,1.09-.37,1.89-.61,2.69-.86,0,0,0,0,.04.33,1.36.11,2.67-.11,4.27-.12,3.86,5.13,8.51,1.49,12.79,2,.43.44.73.64,1.02.85Z"/>
  <path class="cls-60" d="m272.96,154.03c-.64-1.44-1.95-2.95-1.79-4.29.47-3.98-.8-5.09-4.66-4.15-1.45.35-3.14-.3-5.11-.54-.4-.05-.43-.08-.45-.39-.6-.76-1.18-1.22-1.77-1.68-.33-.78-.65-1.57-.55-2.67,1.74-.32,3.07-.45,4.36-.29,9.43,1.2,10.87,1.77,10.04,10.08-.13,1.3-.05,2.62-.07,3.93Z"/>
  <path class="cls-27" d="m346.37,158.98c-.76-4.24-1.23-8.62-1.75-13.44-2.54-.34-6.06-2.6-7.21,3.16-.62-2.14-.96-4.52-1.43-7.74,2.7,0,5.37,0,8.49-.03,1.5,3.05,2.56,6.12,3.59,10.02-.03,2.26-.04,3.69-.06,5.13-.45.92-.9,1.84-1.65,2.91Z"/>
  <path class="cls-63" d="m449.06,133.86c-3.92-.71-7.83-1.42-11.95-2.84-.59-2.14-.97-3.57-1.02-5.11,1.52-1.32,2.71-2.53,4.23-3.74.77-.04,1.21-.08,1.65-.15,0-.03-.03.02-.07.33.32.79.68,1.27,1.06,2.13.91,4.32,1.41,8.66,7.25,7.87-.02.61-.01.86,0,1.11,0,0-.14-.12-.33-.2-.4.14-.62.37-.84.6Z"/>
  <path class="cls-28" d="m109,155c-.8.24-1.6.49-2.74.49-1.08-3.45-2.97-5.03-6.35-4.52-.29-.47-.57-.94-.97-1.68,1.69-.59,3.49-.91,6.08-1.24,2.52-.35,4.25-.69,6.3-1.01.73.04,1.15.05,1.67.33.43.7.77,1.13,1.06,1.94-.01,1.11.01,1.85-.09,2.9-.4,1.13-.67,1.96-.93,2.78-1.31.22-2.63.44-3.67.29.7-.99,1.13-1.61,1.57-2.23-.33-.15-.66-.3-.99-.46-.31.8-.62,1.6-.93,2.4Z"/>
  <path class="cls-22" d="m58.18,123.06c-.55.37-1.09.75-1.98,1.11-2.35-.77-4.35-1.52-6.73-2.67-.48-.78-.59-1.17-.63-1.79.07-.23.17-.7.49-.76,1.14-.68,1.96-1.31,2.78-1.94,1.2-.54,2.39-1.07,3.77-1.89,2.77.2,5.36.67,8.16,1.48-1.19,1.09-2.6,1.83-4.31,3.14-.72,1.48-1.13,2.4-1.54,3.32Z"/>
  <path class="cls-83" d="m272.96,154.4c.01-1.68-.07-3,.06-4.3.83-8.31-.61-8.89-10.04-10.08-1.29-.16-2.62-.03-4.37-.04-.5-.76-.55-1.51-.53-2.63,3.17-.03,6.27.49,9.38.61,5.38.21,7.4,2.06,7.52,7.52.09,3.81,0,7.63-.28,11.94-.43.49-.6.48-.87.27-.3-.45-.55-.61-.86-.69,0-.74,0-1.48-.02-2.59Z"/>
  <path class="cls-44" d="m147.83,141.97c-1.19,1.08-2.38,2.15-3.94,3.6-.37.37-.85.49-.88.16-.09-.76-.14-1.2-.24-1.95.41-1.12.86-1.93,1.47-2.6.08-.56,0-1.27,0-2.31,1-2.24,1.93-4.14,2.85-6.04,2.03-.27,4.06-.55,6.5-.77.41.79.43,1.53.15,2.8-2.16,2.73-4.03,4.92-5.9,7.11Z"/>
  <path class="cls-21" d="m395.43,141.04c-1.86-1.63-3.3-3.29-5.09-5.39-.34-1.51-.34-2.58.1-3.65,4.68-.03,9.32-.83,10.59,5.09-.96,2.33-1.72,4.91-5.6,3.96Z"/>
  <path class="cls-82" d="m454.06,109.44c1.39-3.77,7.77-7.35,10.71-6.36,4.18,1.41,5.82,5.17,4.33,10.68-.9.33-1.65.29-2.87-.02-.72-.49-1-.63-1.31-.7,0,0,.06.05.09-.32,1.45-5.2.37-7.49-3.16-6.56-2.13.57-3.92,2.43-5.86,3.71-.61-.04-1.22-.08-1.93-.42Z"/>
  <path class="cls-26" d="m401.39,137.17c-1.64-6-6.27-5.2-11.23-5.19-.89,0-1.07,0-1.25,0,2.17-5.17,7.39-1.98,10.81-3.88,1.13-.63,2.9-.09,4.82-.03-.96,1.08-2.36,2.09-4.24,3.45.99,1.04,2.02,2.12,3.34,3.34.57.66.84,1.18,1.23,1.97-.43,1.23-.97,2.18-2.01,4.02-.5-1.63-.81-2.61-1.48-3.67Z"/>
  <path class="cls-77" d="m273.94,157.89c.17,0,.33.02.75-.01.77-.01,1.29.02,2.19.12-3.54,1.91-4.49,6.83-1.8,12.35-1.43,1.12-2.9,2.28-4.71,3.05.07-4.54.47-8.7.9-13.13-2.47-.14-3.94-.22-5.4-.3.12-1.24.24-2.48.68-3.9,1.8.47,3.28,1.11,5.42,1.85,1.1.05,1.53.02,1.97-.02Z"/>
  <path class="cls-67" d="m248.01,134.99c-.82-.91-1.63-1.82-2.75-3.19-.62-1.24-.94-2.03-1.02-3.09,3.03-.76,5.81-1.24,8.6-1.72.38,2.72.76,5.45.69,8.59-2.14.08-3.83-.25-5.51-.59Z"/>
  <path class="cls-72" d="m303.05,169.35c5.16-1.07,9.97-2.13,10.51-8.65.03-.35,1.39-.6,2.69-.69.9,1.48,1.24,2.76,1.19,4.02-1.39.72-2.76,1.25-3.31,2.24-.97,1.73-1.44,3.73-2.12,5.62-2.39.05-4.77.11-7.67-.12-.68-.55-.92-.7-1.23-.74-.05-.45-.09-.89-.06-1.67Z"/>
  <path class="cls-44" d="m277.9,156.69c.03-3.32.45-6.7-.01-9.94-.44-3.07-1.8-6.02-2.82-9.71-.06-1.15-.05-1.59.31-2,2.11,2.36,3.86,4.67,5.62,7.23,0,.25.03.74.02,1.13.34,1.8.68,3.21.96,5.01-.34,2.19-.63,3.99-.92,5.79,0,0,.02.44-.3.75-.45.63-.57.95-.7,1.26.04.34-.09.6-.95.73-.77-.11-.99-.18-1.2-.25Z"/>
  <path class="cls-10" d="m16.3,96.97c-.08-1.07-.08-2.63.45-2.83,3.85-1.49,8.28.77,10.26,5.34-4.98,5.27-7.72,1.58-10.71-2.51Z"/>
  <path class="cls-30" d="m96.85,139.01c-1.49.18-2.99.36-5.05.78-1.36.26-2.16.29-2.95.31,0,0,.08-.03.02-.22-.2-.51-.43-.73-.75-.85-.33-.46-.66-.91-1.07-1.64,1.39-2.22,2.86-4.16,4.78-5.94,2.43,1.3,4.41,2.44,6.17,3.88-.53,1.43-.85,2.55-1.17,3.68Z"/>
  <path class="cls-21" d="m450.88,117.99c.04,1.04.09,2.08.09,3.87-1.7,1.56-3.36,2.36-5,3.16.02-.01.02.02-.11-.29-1.39-1.1-2.65-1.89-3.92-2.69,0,0,.03-.05-.12-.29-.72-.4-1.29-.57-1.85-.75.01-.01,0,.03-.07-.21-.27-.52-.52-.73-.85-1.24.86-.99,1.71-2.12,2.57-2.12,3.08-.02,6.17.34,9.25.56Z"/>
  <path class="cls-77" d="m348.4,156.17c-.37-1.53-.35-2.97-.29-4.84,1.31,1.01,2.63,2.41,3.81,3.91,1.2,1.52,2.28,3.13,3.79,4.68.39-.02.32,0,.31.28-.04.49-.06.7-.08.91-.61,1.84-1.21,3.67-1.82,5.51-.5.16-.99.33-1.49.49-.87-1.91-1.86-3.79-2.58-5.76-.59-1.64-.87-3.4-1.66-5.2Z"/>
  <path class="cls-63" d="m282.96,162.88c.42-.91.83-1.83,1.88-2.7,2.1,2.54,3.56,5.04,5.03,7.55-2.24.76-4.49,1.53-6.73,2.29-.06-1.71-.12-3.42-.17-5.82,0-.9,0-1.11,0-1.32Z"/>
  <path class="cls-21" d="m170.01,164c.52.29,1.05.57,1.85.97.24.51.2.9.13,1.94-.48,1.29-.9,2.47-1.39,2.5-4.84.29-9.7.39-14.55.54.14-.54.29-1.08,1.05-1.79,4.71-1.5,8.81-2.83,12.91-4.16Z"/>
  <path class="cls-67" d="m202.12,153.14c-.03.72-.07,1.43-.55,2.51-2.49.36-4.53.36-6.89.35-.77,0-1.22,0-1.7-.32-.67-.78-1.29-1.24-1.92-1.95,0-.25-.03-.74-.03-.98,0-.24,0-.71.33-.76.75-.68,1.18-1.31,2.03-1.96,2.56-.37,4.72-.72,7.1-.89.77,1.05,1.3,1.92,1.74,3.08-.1.51-.1.72-.09.93Z"/>
  <path class="cls-17" d="m435.76,126.02c.38,1.43.77,2.86,1.19,4.66-3.5,1.75-5.48-1.45-8.56-2.49-.36-.23-.38-.42-.22-1.13,1.5-.59,2.82-.65,4.82-.75-.83-1.8-1.41-3.05-1.98-4.59.02-.47.03-.66.03-.85.49-1.15.98-2.31,1.42-3.36.6.06,1.44.14,2.63.05.53.71.72,1.59.76,2.76-.14,2.09-.12,3.9-.1,5.71Z"/>
  <path class="cls-22" d="m312.42,171.94c.28-1.95.75-3.95,1.71-5.68.55-.99,1.92-1.52,3.42-2,.77.46,1.04.67,1.49,1.17,1.83,1,3.48,1.7,5.13,2.4-1.63.81-3.27,1.63-4.9,2.44.04.24.09.49.13.73h5.06c0,.33,0,.66,0,.99-3.88,0-7.76,0-12.03-.06Z"/>
  <path class="cls-1" d="m185.77,133.66c3-.3,6-.61,9.62-.97-.84,3-1.46,5.24-2.31,8.08-.51.82-.78,1.03-1.43,1.23-1.76-1.37-3.14-2.72-4.58-4.44-.47-1.54-.88-2.72-1.29-3.89Z"/>
  <path class="cls-28" d="m192.02,142c.27-.21.55-.42.92-.87,1.33,1.01,2.55,2.25,4.04,3.77.61-3.1.97-4.91,1.71-6.53.43.67.47,1.14.46,1.88,0,.45.05.62.05,1.12,0,.76.06,1.2.05,2,.28,2.1.63,3.83.98,5.57-2.15.36-4.3.71-7.2,1.07-1.18,0-1.62-.01-1.91-.38.39-2.79.64-5.21.88-7.63Z"/>
  <path class="cls-30" d="m324.16,167.69c-1.64-.55-3.3-1.25-4.81-2.5.84-5.39,1.55-10.23,2.25-15.08,4.46,4.85,1.65,10.77,2.41,16.65.04.48.14.77.15.93Z"/>
  <path class="cls-9" d="m146.97,132.55c-.82,2.18-1.74,4.07-2.76,6.62-.11,1.05-.12,1.46-.13,1.87-.45.81-.9,1.62-1.59,2.72-.62.29-1.01.29-1.43-.11-.09-1.21-.13-2.02-.1-3.19,3.37-6.28-1.86-6.03-4.95-7.67,0-.78,0-1.22-.01-1.66,2.39-.05,4.77-.11,7.72.13.83.49,1.12.63,1.44.7.57.11,1.14.22,1.82.6Z"/>
  <path class="cls-59" d="m176.52,138.05c-.64,4.15-2.6,7.16-7.38,8.08-.3-2.46-.2-4.94.19-7.88.76-.73,1.22-.99,1.92-1.17.43.04.6,0,1.14-.05,1.62.34,2.87.68,4.11,1.03m-2.71,2.18c.06.18.12.35.18.53.06-.18.12-.36-.18-.53Z"/>
  <path class="cls-54" d="m265.53,160.12c1.8-.08,3.26,0,5.74.14-.43,4.43-.83,8.59-1.25,13.15-.76.46-1.51.51-2.63.13,1.33-4.02,1.93-7.36-2.46-9.56.09-1.23.18-2.47.6-3.86Z"/>
  <path class="cls-67" d="m436.01,120.03c-.19-.88-.38-1.76-.87-2.82-.48-.35-.66-.53-.85-.7.64-.18,1.29-.35,2.65-.57,4.54-.69,8.36-1.34,12.18-1.98.57,1.12,1.15,2.23,1.74,3.69-3.07.13-6.15-.23-9.23-.21-.86,0-1.72,1.13-2.89,2.15-.52.43-.72.45-1.23.48-.7,0-1.1-.02-1.5-.03Z"/>
  <path class="cls-10" d="m275.01,134.99c0,.45,0,.9-.02,1.68-5.33-.34-10.65-1.01-16.4-1.69-.49-.42-.54-.83-.6-1.8,0-.56,0-1.04,0-1.04,0,0,.42-.16,1.12-.16,4.42.02,8.14.03,11.92.39,1.04.76,2.01,1.19,3.09,1.83.31.49.57.68.89.79Z"/>
  <path class="cls-67" d="m156.04,170.24c4.86-.45,9.71-.55,14.56-.83.49-.03.91-1.21,1.4-2.2.48,1.46.92,3.26,1.69,6.45-6.23-.87-11.54-1.6-17.25-2.43-.4-.29-.4-.49-.4-.98Z"/>
  <path class="cls-1" d="m315.25,155.99c-2.82,0-5.63,0-8.91-.01,1.92-3.06,4.31-6.11,6.99-9.34.47.36.64.9.83,1.83.37,2.77.74,5.14,1.1,7.52Z"/>
  <path class="cls-25" d="m296.13,164.94c1.57,4.96-1.03,8.69-7.03,8.81-1.72.04-5.84,3.79-5.65-2.16,6.54,1.09,7.46.48,8.95-5.58,1.49-.36,2.61-.72,3.74-1.07Z"/>
  <path class="cls-82" d="m431,122c.58,1.25,1.16,2.51,1.99,4.31-2,.1-3.33.16-4.85.47-5.07,0-9.94-.23-15.01-.69,1.21-.85,2.62-1.47,4.79-2.1,4.95-.17,9.65,2.86,13.07-1.98Z"/>
  <path class="cls-15" d="m410.11,143.45c.08-1.11.08-2.09.57-2.65,1.12-1.26,2.48-2.31,3.74-3.45.87,1.46,1.85,2.88,2.58,4.41.49,1.02.63,2.2.98,3.68-2.54-.31-5.13-.99-7.86-1.99Z"/>
  <path class="cls-26" d="m252.91,126.57c-2.86.91-5.65,1.39-9.01,2.15-1.02.28-1.46.28-1.91.29-1.71-.1-3.43-.2-5.6-.64,4.54-4.12,10.32-4.46,16.25-3.98.16.01.23,1.15.27,2.19Z"/>
  <path class="cls-44" d="m241.34,172.95c-.33-3.1,3.47-6.44-1.42-9.43-1.06.13-2.66.32-4.65.52-.05-1.12.29-2.25.67-3.71.78-.33,1.53-.34,2.94-.25,1.49.37,2.31.64,3.38.92.42-.01.58-.03.75,0,0,.05,0,.14,0,.14.51,1.67,1.65,3.44,1.4,4.98-.39,2.35-1.75,4.54-3.06,6.83Z"/>
  <path class="cls-59" d="m358.09,152.5c-.06-.8-.03-1.29-.04-2.16.78-1.35,1.59-2.33,2.42-3.33,4.47,1.93,5.65,5.33,3.75,9.94-2.23-1.34-4.14-2.74-6.14-4.45Z"/>
  <path class="cls-68" d="m456.33,110.01c1.6-1.43,3.39-3.29,5.52-3.85,3.53-.94,4.61,1.36,3.13,6.58-2.81-.6-5.56-1.59-8.65-2.72Z"/>
  <path class="cls-68" d="m296.09,164.62c-1.08.68-2.21,1.03-3.74,1.03-2.36-3.59-4.31-6.82-6.26-10.05,2.04-2.98,3.84-1.57,5.38.44,1.24,1.61,2.2,3.43,3.51,5.72.45.78.69,1.01.93,1.23.05.43.09.87.18,1.63Z"/>
  <path class="cls-68" d="m220.43,139.93c-4.01-2.62-7.74-5.37-11.44-8.49,1.38-.42,2.75-.46,4.66-.22,2.76,1.44,4.98,2.6,7.19,3.76.06.46.13.92-.05,1.79-.3.51-.44.67-.41.71.13.18.31.33.46.49-.04.61-.08,1.23-.42,1.97Z"/>
  <path class="cls-8" d="m286.1,155.62c1.94,3.21,3.89,6.44,5.89,10.03-1.08,6.42-2,7.03-8.47,5.56-.39-.34-.44-.51-.43-.94,2.3-1.02,4.55-1.79,6.79-2.55-1.47-2.5-2.94-5-4.73-7.65-.26-.31-.2-.47.24-1.05.49-1.43.6-2.43.71-3.43,0,0,.02.05,0,.02Z"/>
  <path class="cls-83" d="m199.2,139.99c-.04-.47-.08-.95-.16-1.77-.05-1.09-.06-1.82.45-2.88,2.51-.41,4.51-.49,6.52-.58,1.6.88,3.19,1.75,5.04,3.25.69,2.78,4.27,5.05,0,6.63-1.06-7.43-5.37-8.97-11.85-4.65Z"/>
  <path class="cls-27" d="m264.59,164.12c4.74,2.07,4.14,5.41,2.44,9.36-6.02-1.1-6.4-2.41-2.44-9.36Z"/>
  <path class="cls-26" d="m330.23,163.96c.33-3.57.65-7.13,1.38-10.35,1.06,3.36,1.73,6.38,2.4,9.75.67,1.12,1.33,1.88,2,2.99-.01.82-.02,1.28-.03,1.75-2.24-.61-4.48-1.21-6.1-2,1.01-.54,1.4-.91,1.79-1.27-.48-.29-.95-.58-1.43-.87Z"/>
  <path class="cls-58" d="m334,163c-.67-3.01-1.33-6.03-2.01-9.46,1.07-.44,2.16-.47,3.78-.23.77.46,1.04.59,1.34.64,0,0-.08.02-.08.34-1.01,3.12-2.02,5.91-3.03,8.71Z"/>
  <path class="cls-68" d="m99.57,150.99c3.73-.53,5.62,1.05,6.4,4.62.05.37.02.86-.23,1.12-.25.26-.75.29-1.21.28-1.64.29-2.81.58-3.99.87-.22.05-.44.1-.64-.13.24-.75.48-1.23.71-1.7-.53-.03-1.06-.05-2.07,0-.8.16-1.11.26-1.43.35,0,0,.13-.08.05-.44-.12-.94-.15-1.52-.19-2.1.75-.95,1.51-1.9,2.61-2.86Z"/>
  <path class="cls-21" d="m157.58,157.99c-.95,3.43-2.23,6.92-3.53,10.78-3.5,1.34-3.87,1.12-3.06-1.75.41-1.46,1.15-2.82,1.84-4.56.13-.8.16-1.27.2-2.08,1.42-1.01,2.82-1.67,4.55-2.39Z"/>
  <path class="cls-26" d="m320.01,139.14c3.06.2,6.14.31,9.18.71.42.06.64,1.59.59,2.79-.36.35-.77.36-1.1.22-1.62-.35-2.91-.55-5.01-.88,1.06,2.34,1.67,3.67,2.28,5,0,0-.01.08-.32.09-.75,0-1.19-.03-1.75-.33-.66-1.13-1.19-1.98-1.87-3.09-.74-.78-1.35-1.3-1.96-2.15-.01-1.01-.02-1.68-.03-2.36Z"/>
  <path class="cls-22" d="m431.01,121.72c-3.44,5.13-8.13,2.1-12.72,2.25,3.48-1.87,7.36-3.75,11.3-5.5.11-.05.78,1.13,1.32,2.07.13.52.12.71.1,1.18Z"/>
  <path class="cls-30" d="m49.01,119.01s-.1.47-.48.78c-.78.98-1.18,1.66-1.59,2.34-1.03.65-2.07,1.3-3.67,2.01-.8.31-1.02.55-1.25.8,0,0-.41.14-.62.13-.59-.48-.96-.95-1.08-1.99,1.41-6.86,1.77-7,8.69-4.06Z"/>
  <path class="cls-82" d="m319.58,139.06c.44.75.44,1.42.15,2.48-.88.52-1.46.66-2.04.79.42.55.84,1.11,1.42,2.01.4,1.31.65,2.27.65,3.16-.42-.1-.59-.13-1.04-.37-1.8-1.16-3.32-2.1-4.83-3.05-.62-.99-1.65-1.96-1.7-2.99-.04-.65,1.28-1.8,2.14-1.99,1.54-.34,3.21-.11,5.26-.05Z"/>
  <path class="cls-17" d="m335.99,168.51c-.01-.88,0-1.34.16-2.45,1.43-1.47,2.71-2.3,3.99-3.12.89-.19,1.77-.38,2.66-.56q-2.03,8.71-6.81,6.14Z"/>
  <path class="cls-47" d="m182.04,162.14c-.75,2.27-.66,5.3-4.79,4.88-.8-.25-1.21-.52-1.87-.81-.56-.86-.87-1.69-1.01-2.99,1.66-1.4,3.14-2.32,4.82-2.98,1.08.81,1.97,1.36,2.86,1.9Z"/>
  <path class="cls-63" d="m192.75,165.87c.3.89.3,1.64-.03,2.92-.78,2.07-1.25,3.61-1.71,5.15-.75.05-1.51.09-2.64.07-.58-1.82-1.02-3.58-.93-5.31.07-1.29.47-3.04,1.36-3.65.72-.49,2.39.4,3.95.83Z"/>
  <path class="cls-68" d="m270.97,132.04c-3.72-.01-7.44-.03-11.63-.06-.43-.77-.4-1.51.13-2.61,2.87-.74,5.23-1.12,7.6-1.5.44.04.87.08,1.68.53,1.32.82,2.28,1.22,3.23,1.63.58.49,1.15.98,1.88,1.72.15.25.14.26-.24.26-1.13.01-1.89.02-2.65.04Z"/>
  <path class="cls-28" d="m449.07,113.59c-3.76,1.02-7.59,1.66-11.8,2.34,1.53-1.63,3.43-3.32,5.4-4.91.98-.79,2.1-1.39,3.74-2.46.67,1.2,1.64,2.93,2.66,5.03Z"/>
  <path class="cls-21" d="m33.05,111.43c1.78-.77,3.49-1.09,5.58-1.42-1.34,3.32-3.05,6.65-5.14,9.97-.42-2.7-.47-5.41-.44-8.55Z"/>
  <path class="cls-23" d="m248.02,135.39c1.68-.06,3.37.27,5.44.61-.32,3.27-1.01,6.55-2.05,9.98-1.36-3.29-2.37-6.74-3.38-10.59Z"/>
  <path class="cls-83" d="m185.72,133.7c.46,1.13.87,2.31,1.3,4.23-.02,2.53-.05,4.31-.09,6.09-.61-.47-1.23-.93-1.7-1.93-1.68-2.76-3.5-4.99-5.32-7.22.04-.34.21-.61,1.21-.82,1.96-.08,3.22-.14,4.48-.2,0,0,.07-.11.12-.16Z"/>
  <path class="cls-67" d="m97.13,139.01c.04-1.12.36-2.25,1.17-3.87.9-2.02,1.32-3.54,1.73-5.06,2.04.31,4.09.62,6.53.98-1.49,1.81-3.39,3.57-5.77,5.66-1.27.98-2.05,1.63-2.83,2.28-.18,0-.37.01-.83.02Z"/>
  <path class="cls-44" d="m164.46,139.86c-2.17-1.8-3.99-3.79-6.17-5.8-.98-.45-1.61-.88-2.25-1.63,5.97-2.51,9.19.25,8.41,7.43Z"/>
  <path class="cls-68" d="m340.07,162.53c-1.22,1.22-2.5,2.05-3.93,3.17-.81-.47-1.48-1.23-2.15-2.35,1.01-3.15,2.02-5.94,3.04-9.1.01-.36.42-.28.62-.33.88,1.14,1.57,2.33,2.35,3.86.07,1.68.03,3.02.05,4.75Z"/>
  <path class="cls-67" d="m247.45,173.9c-.94-4.02-1.56-7.97-1.85-11.95-.07-.92,1.03-1.92,1.94-2.91.34,4.95.34,9.93-.09,14.86Z"/>
  <path class="cls-25" d="m353.6,139.05c.07,2.89-.28,5.69-.62,8.5-.56.08-1.13.16-1.69.24-.76-2.62-1.52-5.25-2.29-8.26,1.39-.45,2.79-.5,4.6-.47Z"/>
  <path class="cls-17" d="m355.97,161.54c-.01-.62,0-.83.06-1.35,4.13-.38,4.13,3.16,4.78,5.66.21.81-1.83,2.21-3.75,4.36-.46-3.62-.76-5.93-1.09-8.67Z"/>
  <path class="cls-17" d="m224.09,159.57c-3.45-1.69-6.94-.42-10.84.42,1.48-2.05,3.35-4.08,5.75-6.68,1.8,2.12,3.41,4.02,5.09,6.26Z"/>
  <path class="cls-23" d="m195,156c2.04,0,4.07,0,6.49,0,.43,1.06.48,2.13.09,3.61-2.16.74-3.88,1.07-5.59,1.4-.1-.32-.29-.58-.78-1.29-.21-1.58-.21-2.65-.21-3.71Z"/>
  <path class="cls-28" d="m111.04,161.4c4.54-.04,9.26.26,14.4.59-.19.68-.87,1.98-1.37,1.91-4.3-.58-8.57-1.4-13.04-2.5Z"/>
  <path class="cls-26" d="m445.96,125.03c1.66-.81,3.31-1.61,5.02-2.78.41.88.98,2.11,1.07,3.37.15,2.13,0,4.29-.17,7.09-.23.82-.33.98-.43,1.14l-.46.05s-.44-.14-.6-.29c-.18-.39-.19-.64.06-1.48-1.32-2.76-2.91-4.93-4.49-7.1Z"/>
  <path class="cls-26" d="m378.63,133.96c-1.9,4.66-5.72,2.89-9.45,2.21,2.86-1,5.97-1.68,9.45-2.21Z"/>
  <path class="cls-45" d="m99.59,129.99c.02,1.61-.4,3.14-1.09,4.85-2.25-.95-4.23-2.09-6.35-3.52-.15-.49-.14-.68-.12-1.15,2.39-.28,4.75-.27,7.56-.18Z"/>
  <path class="cls-17" d="m135.52,131.06c.47.51.48.95.15,1.79-1.66,1.12-3,1.84-4.43,2.44-.1-.12-.3-.35-.3-.35-1.09-.93-2.09-2.51-3.29-2.68-3.33-.48-6.74-.37-10.37-.84,5.76-.37,11.77-.4,18.24-.36Z"/>
  <path class="cls-28" d="m127.49,158.04c-.65-.18-.95-.38-1.22-1.13,2.65-1.98,5.28-3.41,7.91-4.52-.04.75-.08,1.17-.4,1.73-.45.71-.63,1.29-1.08,2-.72,1.05-1.16,1.99-1.6,2.92,0,0-.11.06-.08.12-1.04-.34-2.11-.74-3.53-1.12Z"/>
  <path class="cls-19" d="m179.66,134.93c2.07,2.17,3.89,4.4,5.51,6.85-2.23-.65-4.25-1.52-6.6-2.89-.09-1.57.15-2.64.38-3.72.16-.06.31-.12.71-.24Z"/>
  <path class="cls-17" d="m220.91,134.54c-2.28-.73-4.49-1.89-6.85-3.37,1.96-.73,4.07-1.14,6.71-1.65.08,1.86.15,3.23.14,5.03Z"/>
  <path class="cls-22" d="m266.91,127.54c-2.21.71-4.57,1.09-7.37,1.46-.85-3.91.98-4.45,4.11-3.06,1.02.45,2.06.86,3.25,1.61Z"/>
  <path class="cls-68" d="m205.99,134.4c-1.99.45-4,.54-6.42.59-.04-.95.34-1.87,1.25-2.99.86-.31,1.07-.54,1.16-.88,1.07-.06,2.15-.11,3.62-.11.4,1.05.39,2.04.4,3.39Z"/>
  <path class="cls-58" d="m228.6,133.98c-1.01,2.3-2.38,4.61-4.09,6.96-.06-1.71.23-3.46.78-5.7.51-.69.67-.94.76-1.23.73,0,1.45-.01,2.54-.02Z"/>
  <path class="cls-77" d="m196.04,161.38c1.67-.7,3.38-1.03,5.48-1.37.43,1.05.48,2.12.46,3.59-2.01-.35-3.95-1.1-5.94-2.22Z"/>
  <path class="cls-15" d="m178.51,135.11c.21,1.14-.03,2.21-.22,3.62-.45.24-.95.14-1.6-.32-1.41-.71-2.65-1.05-4.25-1.73-.45-.76-.56-1.19-.57-1.65.09-.04.44-.1.44-.1,1.92.04,3.85.08,6.21.19Z"/>
  <path class="cls-26" d="m281.37,154.01c-.03-1.62.26-3.42.59-5.61.05-.39.06-.39.28-.5.47-.31.65-.57.74-1.27.02-1.13.02-1.88.24-2.64.21,0,.64.01.64.01.51,2.46,1.02,4.92,1.53,7.39-.29.08-.58.17-.87.25-.28-.72-.57-1.43-.94-2.36-.66,1.59-1.27,3.07-2.21,4.72Z"/>
  <path class="cls-9" d="m196.43,173.95c1.04-1.35,2.5-2.63,4.34-3.89.27,1.25.16,2.48.04,3.95-1.45,0-2.7,0-4.37-.07Z"/>
  <path class="cls-26" d="m18.03,81.66c-1.32,1.61-2.78,2.92-4.57,4.28-.34.05-.47-.37-.5-.59.3-1.36.63-2.5.99-3.99.37-.86.69-1.36,1.05-2.17.98.52,1.94,1.35,3.02,2.47Z"/>
  <path class="cls-82" d="m426.45,140.9c-2.55-2.04-2.34-3.74,1.04-4.88,0,1.57-.35,3.15-1.04,4.88Z"/>
  <path class="cls-30" d="m313.85,144.37c1.55.66,3.07,1.61,4.58,2.96-1.44.52-2.86.63-4.28.74-.17-.54-.35-1.08-.74-1.8,0-.66.2-1.14.45-1.91Z"/>
  <path class="cls-77" d="m388.55,131.99c.54-.01.72-.01,1.17,0,.27,1.08.27,2.15.27,3.62-.87.31-1.75.23-2.93-.39-.89-1.05-1.47-1.57-2.05-2.09,1.06-.38,2.13-.75,3.54-1.14Z"/>
  <path class="cls-6" d="m191.38,173.99c.09-1.6.56-3.13,1.34-4.83.63,1.22.95,2.61,1.27,4.37-.74.43-1.49.47-2.62.46Z"/>
  <path class="cls-67" d="m229.58,128.33c-1.13,1.35-2.4,2.46-4.05,3.61-1.09-3.61.88-4.31,4.05-3.61Z"/>
  <path class="cls-58" d="m172.4,134.51c-.11.42-.46.48-.77.69-.41.74-.52,1.27-.63,1.8-.45.26-.91.52-1.62.85.08-1.44.42-2.96.75-4.47.79.24,1.58.48,2.26,1.14Z"/>
  <path class="cls-22" d="m272.38,130.02c-1.35-.4-2.31-.81-3.31-1.55,1.89.04,3.82.41,5.91,1.13-.63.37-1.42.39-2.61.42Z"/>
  <path class="cls-26" d="m100.73,158.14c.97-.54,2.15-.84,3.79-.77.47,1.06.47,1.77.47,2.48-1.35-.48-2.7-.97-4.26-1.7Z"/>
  <path class="cls-21" d="m384.68,133.06c.91.59,1.49,1.11,2.16,1.92-.94.56-1.97.82-3.31,1.14-.71-.51-1.09-1.07-1.51-1.99.76-.62,1.54-.88,2.66-1.07Z"/>
  <path class="cls-26" d="m374.46,151.92c-.84-.13-1.36-.42-2.17-.81-.64-.9-1-1.68-1.51-2.77,1.1,0,2.35.31,3.98.68.25.96.13,1.86-.3,2.91Z"/>
  <path class="cls-25" d="m283.93,143.63c-.08.39-.5.37-.88.13-.93-.41-1.48-.58-2.04-.76,0,0-.02-.49-.02-1.08,0-1.03.01-1.48.01-1.93.79,0,1.58.02,2.77.05.34,1.08.29,2.13.16,3.58Z"/>
  <path class="cls-83" d="m209.07,153.01c-.26.44-.53.89-.9,1.57-.92,0-1.73-.24-2.85-.94-.31-.85-.31-1.24-.32-1.63,0,0,0,0,.38,0,1.11-.01,1.85-.02,2.71.2.41.42.69.61.98.81Z"/>
  <path class="cls-22" d="m68.93,119.6c-1.35-.37-2.63-1.11-3.91-2.18,1.33.39,2.65,1.1,3.91,2.18Z"/>
  <path class="cls-15" d="m89.01,140.4c.64-.33,1.44-.36,2.63-.38.39.71.39,1.41.38,2.47-.95-.36-1.9-1.07-3.01-2.09Z"/>
  <path class="cls-82" d="m329,143s.41-.01.61-.01c.2,1.56.19,3.13-.16,4.88-.7-.29-1.05-.76-1.17-1.75.4-1.38.56-2.25.72-3.11Z"/>
  <path class="cls-60" d="m261.02,145.02c0,.83,0,1.64-.06,2.86-.94-.63-1.82-1.66-2.08-2.82,1.12-.12,1.6-.11,2.09-.09,0,0,.03.03.05.05Z"/>
  <path class="cls-67" d="m105.32,159.92c-.33-.78-.33-1.49-.33-2.54,0-.35.49-.38.74-.39.59.73.93,1.47,1.27,2.54-.45.37-.89.42-1.67.4Z"/>
  <path class="cls-60" d="m205.01,152.01c0,.39,0,.78.02,1.46-.76.13-1.53-.04-2.6-.27-.31-.28-.31-.49.12-.98,1.11-.26,1.79-.24,2.46-.22Z"/>
  <path class="cls-38" d="m47.06,122.38c.29-.94.69-1.62,1.4-2.37.42.32.52.7.63,1.4-.64.61-1.28.92-2.04.97Z"/>
  <path class="cls-26" d="m96.6,153.92c.39.51.43,1.09.52,2.11-.66.3-1.38.17-2.1.03.41-.69.82-1.38,1.58-2.14Z"/>
  <path class="cls-68" d="m285.83,155.78c.15.81.04,1.81-.36,3-.17-.82-.03-1.81.36-3Z"/>
  <path class="cls-59" d="m260.94,144.66c-.47.29-.95.27-1.81.24-.28-.44-.2-.87-.03-1.6.66.14,1.24.6,1.84,1.37Z"/>
  <path class="cls-1" d="m185.42,133.49c-1.09.43-2.35.49-4.07.52.99-.32,2.45-.61,4.07-.52Z"/>
  <path class="cls-1" d="m330.12,164.28c.58-.03,1.05.26,1.53.55-.39.36-.78.73-1.47,1.1-.26-.44-.21-.88-.06-1.65Z"/>
  <path class="cls-53" d="m99.01,155.98c.53.03,1.06.05,1.59.08-.23.47-.47.95-1.04,1.62-.34.2-.41.21-.45-.28-.06-.8-.08-1.11-.1-1.42Z"/>
  <path class="cls-58" d="m337.98,151.33c.17.24.4.8.39,1.48-.26-.31-.3-.74-.39-1.48Z"/>
  <path class="cls-26" d="m98.53,156.05c.51.25.53.56.57,1.34-.57.15-1.16-.18-1.87-.74.19-.34.5-.44,1.3-.6Z"/>
  <path class="cls-67" d="m201.37,170c-.19-.47-.08-1.05.28-1.8.18.45.1,1.07-.28,1.8Z"/>
  <path class="cls-26" d="m451.92,133.14c.42.34.67.9.92,1.46-.33-.11-.67-.21-1.19-.53-.1-.38,0-.54.27-.92Z"/>
  <path class="cls-72" d="m233.06,173.3c.29-.05.54.17.8.66-.28.05-.56-.17-.8-.66Z"/>
  <path class="cls-67" d="m245.3,174.86c-.12-.33.1-.54.62-.74.03.2-.17.49-.62.74Z"/>
  <path class="cls-17" d="m224.91,160.7c-.39.19-.62-.03-.78-.63.22-.04.51.16.78.63Z"/>
  <path class="cls-9" d="m182.97,173.28c.24-.17.52-.02.88.39-.2.1-.5-.02-.88-.39Z"/>
  <path class="cls-22" d="m303.08,171.29c.34-.23.58-.08.82.39-.24.1-.54-.01-.82-.39Z"/>
  <path class="cls-26" d="m14.89,77.72c-.35.13-.57-.09-.78-.62.23-.03.52.16.78.62Z"/>
  <path class="cls-22" d="m227.92,165.7c-.26.05-.5-.18-.8-.67.23-.04.52.18.8.67Z"/>
  <path class="cls-8" d="m282.7,162.97c.27.12.28.33.27.86-.19-.04-.36-.4-.27-.86Z"/>
  <path class="cls-25" d="m295.94,162.71c-.27.06-.51-.17-.82-.63.24-.04.54.16.82.63Z"/>
  <path class="cls-17" d="m225.91,162.7c-.25.05-.48-.17-.79-.64.22-.04.51.16.79.64Z"/>
  <path class="cls-26" d="m234.48,127.72c-.32.41-.62.43-1.37.41.16-.29.77-.54,1.37-.41Z"/>
  <path class="cls-67" d="m109.73,131.08c-.03.16-.28.28-.6.23-.07-.17.38-.27.6-.23Z"/>
  <path class="cls-44" d="m159.3,152.06c-.21-.23-.08-.51.34-.9.1.17,0,.48-.34.9Z"/>
  <path class="cls-67" d="m113.73,131.05c-.04.18-.32.32-.64.26-.05-.21.41-.29.64-.26Z"/>
  <path class="cls-17" d="m145.06,131.7c-.23.18-.52.04-.91-.37.18-.1.5,0,.91.37Z"/>
  <path class="cls-17" d="m201.7,131.09c.18.37-.03.6-.6.8-.04-.22.14-.52.6-.8Z"/>
  <path class="cls-44" d="m257.72,132.13c.27.03.27.51.25.76-.18-.1-.35-.44-.25-.76Z"/>
  <path class="cls-26" d="m375.32,149.05c-.2-.23-.07-.52.35-.9.11.19,0,.5-.35.9Z"/>
  <path class="cls-38" d="m42.3,124.93c-.05-.25.18-.49.65-.81.04.22-.17.52-.65.81Z"/>
  <path class="cls-26" d="m449.35,133.92c-.07-.29.14-.52.61-.73.06.28-.13.53-.61.73Z"/>
  <path class="cls-67" d="m225.82,134c.14.3-.02.54-.46.85-.2.1-.33-.36-.28-.6.06-.23.51-.25.74-.25Z"/>
  <path class="cls-26" d="m364.7,136.11c.16.36-.06.58-.61.78-.04-.21.15-.51.61-.78Z"/>
  <path class="cls-17" d="m220.92,137.73c-.23.07-.4-.08-.53-.26-.03-.04.11-.19.33-.37.16-.07.27.4.21.63Z"/>
  <path class="cls-15" d="m88.11,139.29c.34-.14.57.08.76.63-.22.04-.51-.16-.76-.63Z"/>
  <path class="cls-26" d="m23.89,87.7c-.36.14-.58-.09-.77-.64.22-.03.51.17.77.64Z"/>
  <path class="cls-28" d="m126.3,161.05c-.19-.23-.05-.51.36-.9.1.18,0,.49-.36.9Z"/>
  <path class="cls-27" d="m345.31,159.85c-.15-.33.06-.55.6-.75.04.21-.15.49-.6.75Z"/>
  <path class="cls-26" d="m277.86,157.01c.25-.24.46-.17,1.01-.03.12.37-.09.66-.57.95-.34-.2-.41-.4-.44-.92Z"/>
  <path class="cls-67" d="m248.29,158.05c-.16-.2-.03-.48.34-.87.09.16,0,.46-.34.87Z"/>
  <path class="cls-26" d="m280.29,156.09c-.12-.2,0-.51.37-.94.11.2,0,.51-.37.94Z"/>
  <path class="cls-17" d="m46.08,105.68c-.1.28-.34.3-.92.3.03-.21.41-.38.92-.3Z"/>
  <path class="cls-26" d="m376.9,154.71c-.32.21-.55.05-.8-.39.22-.09.53.02.8.39Z"/>
  <path class="cls-17" d="m48.06,107.7c-.2.05-.51-.17-.91-.65.2-.05.51.17.91.65Z"/>
  <path class="cls-26" d="m464.98,113.3c.24-.19.52-.05.87.37-.19.1-.5,0-.87-.37Z"/>
  <path class="cls-68" d="m337.02,153.7c-.21.19-.48.06-.85-.32.17-.1.46,0,.85.32Z"/>
  <path class="cls-66" d="m116.99,52c-3.74-5.81-.78-12.87,4.65-16.28,4-2.51,7.88-7.31,9-11.8,1.96-7.84,9.13-15.75,17.23-15.91,4.23-.08,8.47-.13,12.71-.06,6.89.12,9.35,1.64,4.42,9.6-1.58-1.18-2.42-3.05-3.65-3.36-6.04-1.54-15.22,2.06-19.14,7.63-2.88,4.09-4.55,9.02-7.21,13.3-1.95,3.14-4.11,7.35-7.1,8.39-4.93,1.7-8.44,4.15-10.91,8.5Z"/>
  <path class="cls-7" d="m116.99,52.38c2.47-4.72,5.98-7.17,10.91-8.88,3-1.04,5.15-5.24,7.1-8.39,2.66-4.28,4.32-9.21,7.21-13.3,3.92-5.57,13.1-9.17,19.14-7.63,1.23.31,2.07,2.19,3.37,3.58-.39,2.66-1.06,5.09-2.19,7.88-2.92.35-5.4.52-7.83.25-5.57-.62-9.25,2.36-10.04,8.15-2.43,3.11-4.93,5.98-6.5,9.29-2.16,4.54-4.95,7.4-10.27,7.81-1.96.15-3.84,1.93-5.65,3.12-1.17.77-2.15,1.82-3.26,2.42-.68-.78-1.32-1.23-1.96-1.69,0-.75,0-1.5,0-2.62Z"/>
  <path class="cls-40" d="m172.68,71.91c.51-2.5,1.01-5.01,2.15-7.63,8.41,2.09,10.82.81,13.49-6.66.59-1.65,1.77-3.09,3.1-4.63,5.01.34,8.97,7.3,5.67,11.06-4.47,5.1-10.64,8.71-16.12,12.58-.94-5.34-4.82-4.64-8.29-4.73Z"/>
  <path class="cls-76" d="m119.01,57.01c1.07-.92,2.05-1.97,3.22-2.74,1.81-1.19,3.69-2.96,5.65-3.12,5.32-.42,8.11-3.28,10.27-7.81,1.58-3.31,4.07-6.17,6.56-8.95,1.1.7,1.8,1.12,2.7,1.63.44.28.6.52.64,1.11-.04.49-.04.68-.18,1.19-.14,1.24-.44,2.3-.09,3.07,1.8,3.91.51,6.57-3,8.6-.73.42-1.19,1.33-2.21,2.01-5.45-1.17-9.38,1.63-13.22,3.94-1.9,1.14-3.39,3.55-4.19,5.72-.7,1.88-.16,4.23-.17,6.36-3.73-1.97-5.12-5.43-5.94-9.9-.04-.62-.03-1.12-.03-1.12Z"/>
  <path class="cls-14" d="m125.11,68.31c-.12-2.43-.66-4.77.04-6.66.8-2.16,2.3-4.58,4.19-5.72,3.84-2.31,7.77-5.11,13.65-3.94,2.78-.24,4.69-.61,6.61-.71,3.79-.18,7.59-.2,11.39-.29,0,.75.01,1.5-.41,2.63-9.34,1.74-18.26,3-27.15,4.5-3.48.59-5.56,4.85-4.75,8.44.39,1.74.22,3.61-.02,5.43-.77,0-1.21,0-1.65-.01-.59-1.13-1.18-2.26-1.9-3.68Z"/>
  <path class="cls-11" d="m167.07,77.87c1.13-.51,2.26-1.03,3.95-1.67,5.05,2.54-2.49,2,.12,4.63,2.97-.85,6.42-1.83,9.86-2.43.29,1.77.58,3.15.67,4.82-3.02,1.13-5.83,1.97-8.97,2.8-1.13.28-1.91.58-3.16.9-6.49-.6-12.51-1.22-18.86-1.9-.75-.08-1.18-.1-1.61-.36,0-.23-.03-.7-.06-.99-.69-.42-1.34-.56-2.33-.69-1.11-.33-1.89-.65-2.53-1.24.72-1.09,1.31-1.9,2.22-2.56,5.12,4.59,11.01,2.41,16.48,2.86,3.22.27,4.6-.97,4.24-4.17Z"/>
  <path class="cls-29" d="m161,50.53c-3.8.56-7.6.58-11.39.76-1.92.09-3.83.46-6.17.71.15-.68.6-1.59,1.34-2.01,3.51-2.04,4.8-4.7,3-8.6-.35-.76-.04-1.83.41-3.08.65-.35.86-.38,1.36-.43.68.02,1.07.06,1.51.44,1.55,2.29,2.48,1.95,2.93-.36.03.02-.03,0,.34.01,1.1-.69,1.84-1.39,2.56-2.11-.03-.02-.06-.08.29-.14,1.51-.28,2.66-.5,3.82-.72,0,5.02.02,10.05.02,15.53Z"/>
  <path class="cls-85" d="m176.16,56.06c-.02-.76-.04-1.51.31-2.7,2.92-2.42,5.59-4.25,7.96-6.42,2.34-2.14,4.38-4.62,6.56-6.95,0,0,0,0,.42,0,3.56-.47,5.28.81,7.12,3.6,4.41,6.69,4.67,13.97,4.51,21.47-.26.49-.51.97-1.22,1.7-.91.24-1.36.24-1.83.23,0,0-.02-.02.03-.43.33-3.99,1.53-7.83.61-11.07-.81-2.86-3.58-5.7-6.22-7.38-3.25-2.07-6.15.24-8.69,3.07-3.38,1.76-6.47,3.32-9.56,4.88Z"/>
  <path class="cls-84" d="m128.99,72c-.09-1.81.08-3.68-.31-5.43-.81-3.59,1.27-7.85,4.75-8.44,8.89-1.5,17.81-2.77,27.14-4.13.44.74.46,1.47.12,2.63-3.14,1.74-5.92,3.06-9.07,4.37-1.12,0-1.87,0-2.9-.29-1.26-.43-2.23-.68-3.2-.7-9.58-.21-12.53,2.62-12.51,11.96,0,1.33,0,2.66-.29,3.87-1.43-.71-2.56-1.29-3.68-1.88,0,0-.03.03-.02-.31,0-.78,0-1.22-.02-1.66Z"/>
  <path class="cls-69" d="m175,21c-.52-2.18-1.04-4.37-1.57-6.55,1.93-.17,4.12-1.02,5.76-.4,8.52,3.18,14.35,9.49,18.42,17.58-6.55-3.31-12.75-6.99-19.05-10.48-.93-.51-2.36-.11-3.56-.14Z"/>
  <path class="cls-24" d="m175.05,21.41c1.15-.38,2.58-.78,3.51-.27,6.31,3.49,12.5,7.18,19.09,10.84,1.35,1.78,2.35,3.53,2.98,5.65-1.11.37-1.86.36-2.74.08-1.05-1.09-1.96-1.9-2.96-3.08-6.07-3-12.19-4.85-18.84-3.58-.33-3.07-.66-6.15-1.03-9.63Z"/>
  <path class="cls-37" d="m167.04,77.58c.39,3.48-.99,4.72-4.21,4.46-5.47-.45-11.37,1.73-16.6-3.12-.7-.92-.98-1.43-1.2-2.29,1.36-1.11,2.67-1.87,4.44-2.63,5.59.35,10.72.69,15.86,1.04.57.76,1.13,1.51,1.73,2.56Z"/>
  <path class="cls-41" d="m176.06,56.44c3.2-1.94,6.3-3.5,10.02-5.22,2.06.48,3.49,1.13,4.92,1.77-.91,1.54-2.08,2.98-2.68,4.63-2.68,7.46-5.08,8.75-13.26,6.36.03-2.51.46-4.84.99-7.54Z"/>
  <path class="cls-79" d="m129.06,74.33c1.1.22,2.23.81,3.84,1.79,2.36,1.54,4.24,2.68,6.37,3.95.75.43,1.24.72,1.85,1.21.31.45.57.63.88.72,0,0,0,0,.06.35,2.37,1.08,4.69,1.81,7,2.54.43.02.86.05,1.62.5,1.73,1.79,3.11,3.19,4.56,4.5.86.77,1.84,1.41,2.77,2.11-5.66,1.43-10.52,0-15.27-3.39-2.56-1.83-6-2.42-9.45-3.56-.4.02-.32-.02-.34.02-1.31-3.43-2.59-6.9-3.9-10.73Z"/>
  <path class="cls-78" d="m158.44,91.99c-1.35-.7-2.34-1.33-3.19-2.11-1.45-1.31-2.83-2.71-4.25-4.44,6.02.25,12.05.88,18.87,1.51,1.58-.3,2.37-.61,3.16-.92,2.81-.84,5.62-1.69,8.96-2.9,1.36-.61,2.19-.86,2.97-.76-2.35,3.43-5.01,5.33-9.21,5.88-3.08.41-5.85,3.07-8.76,4.73-2.71-.33-5.42-.66-8.55-.99Z"/>
  <path class="cls-79" d="m167.43,92.99c2.47-1.66,5.24-4.33,8.32-4.73,4.2-.56,6.86-2.45,9.21-5.9.06-.35.07-.34.44-.34,1.45-.65,2.54-1.3,3.78-2.25,1.72-1.45,3.29-2.6,5.23-3.75,1.11,0,1.86,0,2.6,0-1.11,1.31-2.21,2.61-3.75,3.79-.71-.01-.98.11-1.25.23-4.36,11.17-13.96,12.6-24.57,12.96Z"/>
  <path class="cls-61" d="m195.01,34.99c.91.81,1.83,1.62,2.87,2.97.13.7.12.87-.23.89-2.65-.7-5.2-2.42-6.65,1.15,0,0,0,0-.41,0-2.37.82-4.43,1.49-6.29,2.5-2.5,1.36-4.86,2.99-7.27,4.5,0-2.37,0-4.73.41-7.55,5.59-4.04,11.47-4.72,17.57-4.46Z"/>
  <path class="cls-64" d="m149,61.01c.75,0,1.5,0,2.87.28,4.25.68,8.28-.73,11.23,2.67.04.76.08,1.52-.31,2.51-6.85-1.08-13.14-2-17.51,4.69-.51.78-1.51,1.24-2.54,1.62-.61-4.54.93-8.04,4.56-10.78.76-.34,1.23-.66,1.7-.98Z"/>
  <path class="cls-14" d="m160.99,34.6c-1.17.62-2.32.84-3.84.76-1.04-3.35-1.44-6.74-5.82-6.33-4.37.42-4.42,3.58-4.11,6.88-.71-.41-1.41-.83-2.17-1.58.4-6.08,4.08-9.05,9.65-8.43,2.43.27,4.91.09,7.81.13-.2,2.73-.86,5.46-1.52,8.57Z"/>
  <path class="cls-14" d="m194.93,34.62c-6.02.12-11.9.79-17.48,4.39-.69-2.39-1-4.79-1.34-7.58,6.63-1.66,12.75.19,18.81,3.19Z"/>
  <path class="cls-39" d="m191.42,40c1.04-3.57,3.58-1.86,6.38-.85,3.06,4.26,5.62,8.06,8.18,11.85.03.73.05,1.45.06,3-.04,3.19-.06,5.56-.08,7.93-.79.95-1.57,1.89-2.63,2.99-.12-7.35-.38-14.63-4.79-21.32-1.84-2.79-3.56-4.07-7.12-3.6Z"/>
  <path class="cls-11" d="m143,73c.77-.61,1.77-1.07,2.28-1.85,4.37-6.69,10.66-5.77,17.49-4.31.41.14.51.57.12.86-3.36.97-6.45,1.31-9.24,2.42-1.78.71-3.12,2.53-4.66,3.86-1.31.76-2.62,1.52-4.29,2.48-.81-1.02-1.26-2.24-1.71-3.46Z"/>
  <path class="cls-57" d="m149.46,73.99c1.08-1.33,2.42-3.16,4.2-3.86,2.79-1.11,5.88-1.45,9.26-2.2,1.08,2.05,1.75,4.18,2.4,6.71-5.15.05-10.28-.29-15.87-.64Z"/>
  <path class="cls-57" d="m181,78.01c-3.44.98-6.89,1.96-9.86,2.81-2.61-2.62,4.93-2.09.12-4.8.11-1.25.54-2.46,1.19-3.89,3.7-.13,7.58-.83,8.51,4.76.04.62.03,1.12.03,1.12Z"/>
  <path class="cls-39" d="m177.01,47.39c2.44-1.9,4.8-3.53,7.3-4.89,1.86-1.01,3.92-1.68,6.29-2.5-1.77,2.33-3.81,4.81-6.15,6.95-2.37,2.17-5.05,4-7.91,6.04-.06-1.7.2-3.45.48-5.6Z"/>
  <path class="cls-14" d="m205.99,50.6c-2.57-3.39-5.13-7.18-7.84-11.29-.15-.48-.15-.65-.14-1.07.75-.25,1.5-.24,2.62-.24,2.04,4.06,3.71,8.12,5.36,12.6Z"/>
  <path class="cls-85" d="m194.03,76.02c-1.57,1.15-3.13,2.3-5.19,3.74-.93.27-1.38.27-1.79-.09,4.32-4.46,8.62-8.58,12.92-12.69,0,0,.02.02.03.38.03.83.05,1.29.07,1.76-.06.4-.11.81-.54,1.56-2.08,2.02-3.79,3.68-5.5,5.34Z"/>
  <path class="cls-55" d="m163.09,63.57c-2.94-3.01-6.97-1.61-10.85-2.28,2.53-1.6,5.31-2.91,8.46-4.28,1.04,2.03,1.71,4.1,2.39,6.57Z"/>
  <path class="cls-78" d="m194.41,76.01c1.34-1.66,3.05-3.32,5.09-5.04-.42,1.55-1.17,3.14-2.2,4.89-1.03.15-1.78.15-2.89.15Z"/>
  <path class="cls-14" d="m206.3,61.78c-.32-2.21-.3-4.59-.25-7.41,3.47,1.88,2.26,4.55.25,7.41Z"/>
  <path class="cls-66" d="m118.96,56.69c.04.32.04.82.04,1.07-.67-.52-1.33-1.28-1.99-2.4.64.1,1.27.56,1.96,1.33Z"/>
  <path class="cls-39" d="m200.39,69.04c-.33-.4-.36-.87-.38-1.68.46-.35.91-.35,1.71-.34-.11.66-.57,1.3-1.33,2.02Z"/>
  <path class="cls-79" d="m128.66,72c.34.44.35.88.37,1.64-.64-.12-1.29-.56-1.98-1.33.4-.32.84-.32,1.62-.31Z"/>
  <path class="cls-78" d="m192.25,80.02c.02-.12.3-.24.66-.19-.08.17-.24.18-.66.19Z"/>
  <path class="cls-58" d="m240.98,137.01c-.65-1.42-1.29-2.84-1.99-4.6,2.61,2.74,5.28,5.81,7.61,9.2-1.73,0-3.13-.32-4.56-.63-.03.02-.08.04-.06-.31-.32-1.46-.66-2.56-1-3.66Z"/>
  <path class="cls-10" d="m244.99,151c-.14,2.49-.27,4.97-.86,7.49-1-.14-1.56-.32-2.38-.74-.09-2.4.1-4.56.65-6.73,1.11-.01,1.85-.01,2.59-.02Z"/>
  <path class="cls-10" d="m242.06,140.97c1.4.32,2.8.64,4.57,1,.36.48.37.92.01,1.76-.79,1.69-1.22,2.98-2.02,4.27-1.11,0-1.85-.02-2.6-.46,0-2.48.02-4.53.04-6.58Z"/>
  <path class="cls-58" d="m244.99,148.01c.43-1.29.86-2.59,1.65-3.94-.06,1.56-.48,3.18-1.27,4.62-.37-.18-.38-.68-.38-.68Z"/>
  <path class="cls-45" d="m244.62,148c.37,0,.37.5.38.75,0,.69,0,1.14,0,1.91-.74.33-1.48.34-2.61-.03-.38-1.13-.36-1.89-.35-2.65.74,0,1.48.01,2.59.02Z"/>
  <path class="cls-23" d="m242.03,129.34c.41-.34.86-.35,1.63-.35.65.79.97,1.57,1.32,2.68-.95-.45-1.94-1.22-2.95-2.33Z"/>
  <path class="cls-58" d="m231.7,132.04c-.43.66-1.22,1.3-2.37,1.93.43-.65,1.22-1.3,2.37-1.93Z"/>
  <path class="cls-45" d="m242.02,157.99c.55.18,1.1.36,1.83.78,0,.82-.19,1.4-.61,2.18-.24.2-.25.1-.35-.15-.3-.52-.56-.7-.88-1.13,0-.78,0-1.23.02-1.67Z"/>
  <path class="cls-62" d="m324.01,77.02c5.34-11.52,5.25-23.79,5.33-36.59,2.25-2.02,4.23-3.44,6.02-5.06,6.96-6.32,15.07-10.05,24.48-10.3,6.78-.18,11.03,4.27,10.83,10.78-1.75-.57-3.23-.84-4.56-1.44-9.53-4.29-21.34,1.36-24.4,11.73-2.87,3.9-6.1,7.38-7.83,11.49-1.7,4.03-1.55,8.8-2.84,13.06-1.32,4.39-.29,8.26,4.26,11.45.76,1.05,1.23,1.96,1.45,2.98-.75.37-1.24.63-2.03.75-1.44-.05-2.57.04-4.04.12-.78,0-1.22.01-1.92.01-.25,0-.74-.02-.78-.37-1.34-3.11-2.65-5.86-3.96-8.62Z"/>
  <path class="cls-43" d="m318,85.99c-1.38,0-2.77,0-4.57-.34-.42-.77-.43-1.21-.48-1.99-1.57-1.57-2.96-3.02-4.63-3.99-5.4-3.15-8.19-8.13-9.83-13.84-1.52-5.31-.51-10.05,3.76-13.94,4.69-4.28,4.62-4.62.47-9.96-.45-.58-.39-1.55-.23-2.33,7.49-2.24,8.16-4.48,3.46-10.36,3.85-1.74,6.64.07,7.05,4.51.64,7,1.21,14.02,2.05,21,.3,2.52,1.28,4.97,1.56,7.81-3.04-.83-5.42-1.02-7.29,1.84-1.87,2.86-3.78,5.64-.75,8.85,1.9,2.01,3.87,3.96,5.8,5.95,1.88,1.93,3.75,3.87,5.33,5.82-.77.34-1.24.66-1.71.97Z"/>
  <path class="cls-70" d="m371,36c-.14-6.65-4.38-11.11-11.17-10.93-9.41.25-17.52,3.97-24.48,10.3-1.79,1.63-3.77,3.04-6.01,4.59-.68-1.7-1.01-3.44-1.07-5.79,2.69-2.56,4.93-4.79,7.56-6.4,5.74-3.53,10.49-9.44,18.51-7.89,1.06.2,2.43-1.21,3.99-1.87.78,0,1.22,0,1.72.35,2.69,1.45,5.32,2.54,8.2,3.64.25,0,.75,0,.75.36.67,1.12,1.33,1.88,2.26,2.87,2.46,3.61,4.7,6.96,6.82,10.39,1.07,1.73,1.93,3.6,2.53,5.36-3.44-1.69-6.53-3.34-9.62-4.98Z"/>
  <path class="cls-46" d="m302.15,39.6c.18.79.12,1.76.57,2.33,4.15,5.34,4.22,5.67-.47,9.96-4.26,3.89-5.28,8.63-3.76,13.94,1.64,5.71,4.43,10.69,9.83,13.84,1.67.97,3.06,2.42,4.29,3.99-.73.34-1.18.35-1.63.35-.44,0-.88,0-1.7-.36-1.68-1.12-2.98-1.88-4.29-2.65-2.77-2.96-5.54-5.93-8.66-9.33-6.29-12.28-2.59-22.87,4.12-33.03.74.37,1.21.67,1.68.96Z"/>
  <path class="cls-81" d="m370.66,35.85c3.43,1.79,6.52,3.44,9.96,5.46.36.81.36,1.25.13,1.86.25.73.73,1.29,1.54,1.86.76.03,1.2.04,1.63.06-.47.56-.94,1.12-1.92,1.79-.69.12-.87.11-1.38.06-1.43-1.02-2.52-1.99-3.65-3.32-1.87-1.78-3.5-3.68-5.56-4.54-6.38-2.68-11.29.08-15.82,4.92-3.47,1.33-6.53,2.67-9.9,3.86-1.43-.71-2.57-1.29-3.7-1.86,2.76-10.23,14.57-15.88,24.1-11.59,1.33.6,2.81.87,4.56,1.44Z"/>
  <path class="cls-32" d="m320,84.99c-1.88-1.93-3.75-3.87-5.63-5.8-1.93-1.98-3.9-3.94-5.8-5.95-3.04-3.21-1.12-5.99.75-8.85,1.87-2.86,4.25-2.67,7.28-1.43,2.47,4.68,4.58,9.32,7.04,14.01,1.67,2.81,2.98,5.56,3.91,8.67-2.77.02-5.16-.31-7.56-.65Z"/>
  <path class="cls-79" d="m380.96,46.99c.18,0,.35,0,.8.02,3.9,4.64,3.88,9.57-.5,16.04-3.8,5.62-8.1,10.91-12.18,16.69-.01.35-.05.27-.01.29-3.73,1.33-7.5,2.64-11.66,3.57.4-1.46,1.26-2.49,1.97-3.62.61-.98,1.06-2.06,1.62-3.38.37-.71.69-1.15,1.38-1.59,7.13-2.63,11.25-7.95,14.96-14.16,1.11-1.71,1.91-3.28,2.98-5.12.37-2.42.47-4.55.6-7.03.05-.8.05-1.26.06-1.72Z"/>
  <path class="cls-66" d="m326,24c-1.84-5.03-.74-8.17,4.04-8.9,8.94-1.38,17.96-2.36,26.98-2.91,2.21-.14,4.57,2,6.49,3.45-2.09.37-3.8.37-5.94.37-1.8,0-3.19,0-4.64-.35-10.25-1.26-18.71,3.18-26.94,8.35Z"/>
  <path class="cls-4" d="m300.19,38.55c-6.44,10.24-10.14,20.84-4.2,33.05-5.38-1.13-6.47-5.79-6.88-10.22-.87-9.5,2.41-17.96,8.08-25.93.82.03,1.33.29,1.93.81.42.94.74,1.61,1.06,2.28Z"/>
  <path class="cls-51" d="m358,16.01c1.72,0,3.43,0,5.58-.01,3.03,1.1,6.21,1.6,8.13,3.42,7.05,6.7,11.41,14.96,12.25,25.25-.46.41-.9.39-1.67.07-.66-.79-.98-1.26-1.3-1.73,0-.44,0-.88,0-1.65-.96-2.14-1.81-4-2.88-5.74-2.12-3.43-4.36-6.78-6.85-10.71-.95-1.33-1.59-2.12-2.24-2.9,0,0-.5,0-.8-.34-2.33-2.88-4.6-4.86-8.21-3.66-.44,0-.89,0-1.66-.33-.33-.78-.33-1.22-.34-1.67Z"/>
  <path class="cls-48" d="m357.58,16c.42.45.42.89.42,1.67-1.23,1-2.6,2.41-3.66,2.2-8.02-1.55-12.77,4.36-18.51,7.89-2.62,1.61-4.87,3.84-7.56,6.01-.61-2.16-.94-4.54-.89-7.35,8.8-3.77,17.21-7.1,25.62-10.43,1.39,0,2.77,0,4.58,0Z"/>
  <path class="cls-79" d="m319.7,85.02c2.69.31,5.09.65,7.89.98.41,0,.9,0,1.18.31.93.43,1.57.57,2.62.7,1.47,0,2.53,0,3.67.38,1.53.69,3.08,1.49,4.42,1.23,5.21-1.02,10.35-2.38,15.51-3.61-.27.59-.42,1.58-.82,1.7-7.41,2.16-14.12,7.78-22.66,4.42-4.32-1.7-9.88.17-13.37-4.81.31-.64.78-.95,1.55-1.29Z"/>
  <path class="cls-52" d="m355.26,84.9c-5.42,1.34-10.56,2.69-15.77,3.71-1.34.26-2.89-.54-4.41-1.48-.07-.79-.07-.96-.07-1.13.49-.26.98-.52,2.13-.93,2.43-.46,4.32-.49,5.96-1.13,2.75-1.06,5.35-2.52,8.36-3.87,3.4-1.11,6.44-2.15,9.48-3.19-.52,1.04-.96,2.12-1.58,3.1-.71,1.13-1.57,2.16-2.36,3.62-.5.65-.99.91-1.74,1.28Z"/>
  <path class="cls-51" d="m352.94,15.65c-8.35,3.68-16.77,7.01-25.56,10.34-.7-.46-1.02-.93-1.36-1.7,8.2-5.47,16.67-9.9,26.92-8.65Z"/>
  <path class="cls-73" d="m300.46,38.64c-.59-.75-.91-1.43-1.3-2.74-.15-1.4-.24-2.16-.32-2.92.35-.71.7-1.43,1.46-2.46.86-.64,1.32-.95,1.77-1.27,1.03-.02,2.07-.04,3.49-.04,5.09,5.91,4.42,8.15-3.07,10.39-.81-.29-1.29-.58-2.03-.96Z"/>
  <path class="cls-79" d="m305.04,81.35c1.27.41,2.57,1.17,3.92,2.29-1.27-.41-2.57-1.17-3.92-2.29Z"/>
  <path class="cls-43" d="m298.54,33.02c.39.71.47,1.47.52,2.6-.53.12-1.04-.14-1.8-.51.15-.76.56-1.4,1.28-2.1Z"/>
  <path class="cls-43" d="m301.92,28.96c-.3.6-.75.91-1.49,1.28.25-.49.79-1.02,1.49-1.28Z"/>
  <path class="cls-79" d="m311.03,84.33c.4-.32.85-.33,1.63-.33.34.44.34.88.35,1.65-.64-.11-1.29-.55-1.98-1.32Z"/>
  <path class="cls-34" d="m58.57,123.05c.02-.9.43-1.82,1.08-2.93,6.44,2.44,12.68,5,18.82,7.78.74.34,1.53,2.51,1.31,2.7-1.52,1.31-3.29,2.32-5.36,3.43.03-3.89-1.69-5.95-5.52-6.99-3.42-.93-6.63-2.64-10.33-3.99Z"/>
  <path class="cls-34" d="m71.33,135.99c.42-.67,1.21-1.32,2.34-1.96-.42.67-1.21,1.32-2.34,1.96Z"/>
  <path class="cls-68" d="m281.01,139.6c0,.85,0,1.3-.02,2.08-1.76-1.98-3.51-4.29-5.62-6.65-.68-.15-.94-.33-1.25-1.16-.11-.99-.12-1.43-.12-1.87,0,0,.01-.01.02-.02,3.64,1.13,7.27,2.28,6.99,7.61Z"/>
  <path class="cls-33" d="m119,136.05c2.95,0,5.9-.01,9.38.31.9.58,1.27.84,1.72,1.4,2.29.43,4.5.55,8.29.76-4.45,4.51-6.31,9.52-12.67,9.54-2.21-.65-5.45,2.18-5.62-2.47,1.08-1.71,1.99-3.14,3.15-4.58.51-.14.79-.26,1.06-.38-.09-.12-.25-.36-.26-.36-.36.23-.72.48-1.44.57-3.45-.51-7.72-3.45-7.95,3.02-1.71-.39-3.09-.63-4.47-.88-.74-1.09-1.49-2.18-1.89-3.76,2.38-.73,4.47-.79,6.46-1.27,1.47-.35,2.82-1.24,4.23-1.89Z"/>
  <path class="cls-56" d="m119.94,145.86c.33,4.38,3.57,1.54,5.68,2.55-2.05,1.86-4.38,3.36-6.94,4.74-.47-.36-.71-.62-.87-1.27-1.19-1.24-2.46-2.08-3.72-2.92-.34-.44-.67-.87-1.07-1.86-.71-1.11-1.36-1.67-2.2-2.33-.45-.3-.63-.54-.74-.83,0,0,.05-.48.09-.72,1.42,0,2.8.25,4.51.65.33.14.33.14.45.42,1.04.76,1.96,1.23,3.21,1.69.75-.04,1.18-.08,1.61-.12Z"/>
  <path class="cls-15" d="m98.2,139.19c.54-.85,1.32-1.5,2.43-2.19.72,1.91,1.13,3.86,1.53,5.81h-8.38c2.47-1.81,3.57-2.61,4.43-3.62Z"/>
  <path class="cls-56" d="m118.57,136.02c-.97.68-2.32,1.57-3.79,1.92-1.99.48-4.08.54-6.51.94-2.41-2.98-.97-4.04,2.13-3.83,2.59.18,5.16.62,8.17.97Z"/>
  <path class="cls-54" d="m109.66,143.96c.53.27.71.51,1.15,1.17.19.95.2,1.43.2,1.91-1.73.34-3.46.67-5.59.99-.94-3.39.74-4.45,4.24-4.08Z"/>
  <path class="cls-17" d="m129.96,135.97c.17-.28.35-.55.75-.93.23-.1.43.14.38.42-.28.5-.53.66-.91.69-.07-.06-.22-.19-.22-.19Z"/>
  <path class="cls-17" d="m130.03,137.45c-.37-.26-.75-.51-1.21-1.11.12-.34.32-.35.84-.36.31-.01.46.11.47.48-.02.57-.06.78-.1.99Z"/>
  <path class="cls-56" d="m148.15,142.11c1.55-2.33,3.42-4.52,5.57-6.88.56.25.79.7,1.11,1.07,4.59,5.47,4.44,6.32-2.13,10.55-1.39-1.51-2.81-3.06-4.55-4.75Z"/>
  <path class="cls-33" d="m143.04,146.05s.48-.12.7-.23c3.6,5.61,1,11.27-5.79,12.05,1.51-4.18,3.3-8,5.09-11.82Z"/>
  <path class="cls-67" d="m143,145.72c-1.76,4.15-3.55,7.97-5.47,12.24-.38.96-.63,1.48-1.2,2.02-.33.02-.6-.2-.56-.57.16-1.37.28-2.38.59-3.54.2-.56.21-.96.21-1.36-.53.18-1.06.35-1.63.24-.07-.48-.1-.67.03-1.1.47-.68.79-1.13,1.39-1.75,1.07-1.75,1.86-3.32,2.9-5.08.78-1.04,1.3-1.9,1.82-2.76.38,0,.77,0,1.44.02.34.45.39.89.47,1.65Z"/>
  <path class="cls-67" d="m136.15,162.66c-.38-.13-.77-.61-1.11-1.64.19-.84.4-1.07.68-1.24,0,0,.27.22.42.33.1.81.06,1.5.01,2.55Z"/>
  <path class="cls-58" d="m150.01,151.72c-.15.26-.32.27-.76.27-.09-.44.07-.88.24-1.32.17.26.33.53.52,1.04Z"/>
  <path class="cls-65" d="m182.32,161.98c-1.17-.39-2.06-.93-3.1-2.08.16-1.69.49-2.77,1.05-3.86.24,0,.73-.04,1.07-.07,1.42-1.37,2.5-2.7,3.58-4.04,0,0,.01-.46.15-.9.34-.71.6-.91,1.26-1.02.8.02,1.25.03,1.72.3.02.44.04.61.17,1.12-.03,2.72-.18,5.11-.32,7.5,0,0,.04.08-.21-.01-.41-.06-.58-.03-.75,0-.57.51-1.15,1.01-1.85,1.77-.92.55-1.7.85-2.77,1.31Z"/>
  <path class="cls-20" d="m188.11,151.09c-.02-.18-.03-.35.13-.95-.3-.99-.77-1.57-1.24-2.14-.02-1.06-.03-2.12-.06-3.58.03-2.18.06-3.96.14-6.12,1.42.97,2.8,2.33,4.56,3.69.13,2.43-.11,4.85-.79,7.75-1.2.77-1.97,1.05-2.74,1.34Z"/>
  <path class="cls-31" d="m181,155.99s-.48.03-1.18.02c-3.74,0-6.78-.01-9.82-.01-.2-.67-.4-1.34-.62-2.36,3.6-.78,7.23-1.2,11.25-1.22.39,1.46.39,2.52.38,3.57Z"/>
  <path class="cls-86" d="m181.34,155.96c-.34-1.03-.33-2.08-.32-3.53,1.05-.42,2.08-.45,3.51-.49-.69,1.32-1.77,2.66-3.19,4.03Z"/>
  <path class="cls-86" d="m186.73,147.98c.74.59,1.21,1.17,1.5,1.9-.64.14-1.1.13-1.9-.22-.36-.79-.38-1.24-.39-1.68.18,0,.35,0,.79,0Z"/>
  <path class="cls-31" d="m185.62,148.03c.33.39.35.84.37,1.63-.31.46-.58.66-.92,1.13-.01-.76.11-1.73.55-2.76Z"/>
  <path class="cls-38" d="m49.32,118.95c-7.24-2.89-7.6-2.74-9.03,3.8-2.82-3.44-.82-6.7,1.09-9.65.54-.83,3.17-1.12,4.3-.57,2.11,1.04,3.83,2.88,6.07,4.44-.47.67-1.29,1.3-2.42,1.98Z"/>
  <path class="cls-65" d="m241.75,157.74c.26.69.26,1.13.25,2.17,0,.75,0,.92,0,1.09-.82-.27-1.64-.55-2.76-.97-.29-1.5-.28-2.85-.26-5,0-1.89-.02-2.96-.03-4.04-.13-1.17-.27-2.35-.67-4.18-.46-6.21-.92-6.54-6.4-5.26-.95.22-1.94.29-2.91.44-.37-5.64,3.71-4.88,7.75-4.69,2.12,1.45,3.68,2.59,5.24,3.74,0,0,.05-.03.08-.04,0,2.03,0,4.08-.01,6.56,0,1.2-.02,1.95,0,3.09-.17,2.54-.35,4.7-.26,7.11Z"/>
  <path class="cls-86" d="m228.72,142.2c1.22-.37,2.21-.44,3.17-.67,5.48-1.29,5.94-.96,6.13,5.02-.98-.05-2-.48-2.94-1.02-.81-.46-1.55-1.06-2.34-1.61-1.51,1.38-2.86,2.61-4.56,3.98-.13-1.74.08-3.6.55-5.71Z"/>
  <path class="cls-86" d="m238.61,151.05c.35,1.01.37,2.08.37,3.57-2.72-.46-2.61-1.82-.37-3.57Z"/>
  <path class="cls-18" d="m314.15,148.47c1.41-.5,2.84-.62,4.55-.92.46-.16.63-.13,1.03.16.57.61.9.96,1.24,1.3.1.18.21.37.46.83-.55,5.12-1.25,9.96-2.27,15.05-.58.05-.85-.16-1.23-.6-.45-1.52-.79-2.79-1.28-4.37-.43-1.35-.7-2.4-1.19-3.68-.58-2.62-.94-4.99-1.32-7.76Z"/>
  <path class="cls-15" d="m135.77,159.41c-.32.54-.54.77-.77,1.28-.71.03-1.33-.15-1.99-.92.32-1.64.67-2.7,1.01-3.76-.02,0-.02.03.24.1.43.01.6-.04,1.05-.09.47,0,.66.01.85.02-.11,1-.23,2.01-.39,3.38Z"/>
  <path class="cls-53" d="m134.04,156.02c-.35,1.06-.71,2.12-1.22,3.48-.49.13-.82-.05-1.44-.34.17-1.05.61-1.98,1.59-3.04.72-.12.89-.11,1.07-.1Z"/>
  <path class="cls-5" d="m355.44,151.42c-.94-.1-1.67-.35-2.39-.6.92-.18,1.83-.35,2.88-.21,0,.43-.14.54-.49.81Z"/>
  <path class="cls-21" d="m157.91,156.32c.13.03.26.26.2.55-.19.05-.2-.35-.2-.55Z"/>
  <path class="cls-1" d="m169.96,163.65c-4.05,1.68-8.15,3.01-12.64,4.34,1.63-4.36,3.65-8.72,5.68-13.07.62-.04,1.24-.07,1.86-.11,1.69,2.83,3.37,5.66,5.1,8.84Z"/>
  <path class="cls-33" d="m170,156.35c3.03-.35,6.07-.35,9.57-.33.14,1.1-.19,2.18-.54,3.61-1.52,1.26-3,2.18-4.79,3.26-1.61-1.96-2.92-4.07-4.24-6.54Z"/>
  <path class="cls-45" d="m209.41,152.96c-.63-.14-.91-.33-1.05-.97,1-2.61,1.86-4.77,2.71-6.93,4.24-1.99.66-4.27.11-6.77,4.32,1.87,5.14,6.2,1.88,11.04-.9,1.33-2.19,2.39-3.65,3.63Z"/>
  <path class="cls-60" d="m273.84,157.69c-.33.24-.77.28-1.52.24-.19-.36,0-.58.46-.84.51-.01.76.15,1.06.6Z"/>
  <path class="cls-77" d="m188.22,151.42c.66-.62,1.42-.9,2.48-1.3.73-.12,1.17-.11,1.93-.09-.11.65-.54,1.28-1.46,2.04-.55.23-.7.4-.67.43.15.18.34.33.52.49,0,0,.03.5-.08,1.02.62,1.01,1.35,1.5,2.07,1.99.44,0,.89,0,1.66,0,.33,1.07.33,2.14.33,3.61-2.09.05-4.18-.29-6.68-.67-.27-2.41-.13-4.8-.09-7.52Z"/>
  <path class="cls-77" d="m187.03,159.08c.07-.21.24-.24.67-.22-.02.17-.3.28-.67.22Z"/>
  <path class="cls-34" d="m241.97,140.67c-1.58-.79-3.13-1.94-4.83-3.39.97-.31,2.08-.32,3.51-.31.66,1.13,1,2.24,1.32,3.69Z"/>
  <path class="cls-30" d="m321.5,148.98c-.86-.32-1.2-.67-1.51-1.21-.23-1.16-.48-2.12-.48-3.42,1.04-.38,1.84-.41,2.63-.44.54.85,1.07,1.7,1.73,3.18.15,1.1.19,1.56.23,2.03-.69-.05-1.38-.11-2.6-.14Z"/>
  <path class="cls-68" d="m328.68,142.85c.17,1.01,0,1.87-.42,2.94-.77.47-1.27.73-2.04,1.09-.88-1.24-1.48-2.57-2.55-4.91,2.09.33,3.39.53,5.01.88Z"/>
  <path class="cls-38" d="m324.41,149.08c-.35-.43-.39-.9-.42-1.71.44-.33.88-.31,1.65-.27-.09.67-.5,1.31-1.23,1.98Z"/>
  <path class="cls-1" d="m117.74,152.27c.24.25.47.51,1.02,1.17,1.43.38,2.68.66,3.66.27,3.83-1.53,7.57-3.27,11.42-4.87.08.07.23.21.21.59-.01,1.12,0,1.88.04,2.6.03-.02.1.03.1.03-2.63,1.43-5.26,2.86-8.04,4.6-4.31.03-8.96,3.67-12.82-1.46-.02-1.03.25-1.86,1.01-2.95,1.47-.17,2.44-.08,3.41.02Z"/>
  <path class="cls-8" d="m445.97,125.02c1.57,2.18,3.15,4.35,4.51,6.75-6.11,1.38-6.61-2.96-7.2-7.2,1.1-.05,1.91.22,2.71.48,0,0,0-.03-.02-.02Z"/>
  <path class="cls-8" d="m435.86,120.32c.55-.27.95-.26,1.86-.02,1.09.4,1.68.57,2.27.73,0,0,0-.04-.02.26,0,.49,0,.68.02.87-1.19,1.21-2.37,2.42-3.9,3.74-.35-1.69-.37-3.5-.23-5.59Z"/>
  <path class="cls-26" d="m445.87,124.73c-.68.05-1.48-.21-2.6-.55-.68-.56-1.04-1.04-1.36-1.83,1.3.49,2.57,1.28,3.96,2.38Z"/>
  <path class="cls-26" d="m440.32,122.17c-.35-.19-.36-.38-.37-.86.58-.12,1.15.04,1.87.47-.29.31-.73.35-1.5.39Z"/>
  <path class="cls-75" d="m117.81,151.87c-1.05.31-2.02.21-3.35.08-.4-.78-.43-1.52-.41-2.63,1.31.47,2.57,1.31,3.76,2.55Z"/>
  <path class="cls-63" d="m111.32,147.06c-.32-.5-.32-.98-.32-1.82.65.19,1.3.75,1.92,1.6-.45.28-.87.26-1.6.22Z"/>
  <path class="cls-67" d="m109,155c.31-.8.62-1.6.93-2.4.33.15.66.3.99.46-.43.62-.87,1.24-1.61,1.9-.31.04-.31.04-.31.04Z"/>
  <path class="cls-47" d="m144.23,141.18c-.15-.55-.13-.96-.1-1.67.1.4.18,1.11.1,1.67Z"/>
  <path class="cls-23" d="m281.01,143.39c.56-.22,1.11-.04,1.83.37.16,1,.16,1.75-.07,2.98-.49.68-.66.94-.74,1.27,0,0-.02,0,0,0-.33-1.41-.68-2.82-1.01-4.62Z"/>
  <path class="cls-26" d="m439.9,120.8c-.51.07-1.09-.1-1.89-.51,0-.26.21-.28.73-.32.63.1.89.31,1.16.83Z"/>
  <path class="cls-18" d="m205.01,152.01c-.67-.02-1.35-.04-2.36-.07-.87-.88-1.4-1.74-2.17-2.79-.58-1.92-.93-3.65-.79-5.76,2.78-.39,5.08-.4,7.64-.18-.59,3.09-1.45,5.95-2.31,8.81,0,0-.01,0,0,0Z"/>
  <path class="cls-23" d="m192.96,155.67c-.68-.17-1.41-.66-2.02-1.43.73.19,1.36.65,2.02,1.43Z"/>
  <path class="cls-23" d="m191.01,152.74c-.18.08-.37-.07-.52-.25-.02-.03.12-.2.36-.38.17-.08.16.4.16.64Z"/>
  <path class="cls-60" d="m205.38,152.01c.49-2.86,1.35-5.71,1.84-9.18-2.9-1-5.43-1.39-7.97-1.77-.05-.18-.1-.35-.1-.8,6.52-4.59,10.84-3.05,11.89,4.38-.83,2.58-1.68,4.74-2.81,7.12-1.01.23-1.75.24-2.86.25Z"/>
  <path class="cls-31" d="m199.2,141.38c2.59.06,5.12.45,7.75,1.21-2.2.39-4.5.4-7.21.42-.48-.43-.54-.87-.54-1.63Z"/>
  <path class="cls-75" d="m133.76,148.78c-3.77,1.66-7.51,3.4-11.34,4.93-.98.39-2.23.11-3.42-.16,2.26-1.8,4.58-3.29,7-5.14,6.09-.39,7.94-5.4,12.4-9.91-3.79-.21-6-.33-8.29-.76-.04-.51,0-.72.09-1.23.36-.4.62-.56.99-.94,1.49-.89,2.83-1.61,4.49-2.39,3.41,1.23,8.64.99,4.96,7.37-2.55,3.06-4.72,5.64-6.88,8.22Z"/>
  <path class="cls-1" d="m133.83,148.85c2.08-2.65,4.24-5.24,6.72-7.92.36.7.41,1.51.49,2.72-.48,1.26-1,2.12-2.07,3.24-1.3.88-2.05,1.51-3.15,2.13-.82.01-1.29.03-1.76.05,0,0-.15-.14-.23-.21Z"/>
  <path class="cls-16" d="m173.98,140.22c.12.18.06.35,0,.53-.06-.18-.12-.35,0-.53Z"/>
  <path class="cls-67" d="m171.26,137.07c-.15-.61-.04-1.13.29-1.83.32.26.42.68.5,1.44-.19.38-.36.42-.79.39Z"/>
  <path class="cls-44" d="m273.62,132c.38.44.39.88.39,1.65-.97-.09-1.94-.52-2.98-1.28.69-.35,1.45-.36,2.58-.38Z"/>
  <path class="cls-34" d="m242.25,161c-.25-.17-.25-.34-.24-.76.32-.16.58.02.88.5-.06.23-.22.25-.64.26Z"/>
  <path class="cls-38" d="m322,143.65c-.66.3-1.45.33-2.65.36-.82-.56-1.24-1.11-1.66-1.67.58-.13,1.16-.27,2.05-.46.91.46,1.52.98,2.26,1.76Z"/>
  <path class="cls-56" d="m136.08,152.07c-.32.45-.63.9-1.3,1.6-.35.26-.73.32-.73.32.04-.43.08-.85.12-1.6,0-.32-.06-.37.16-.34.48-.21.73-.45,1.17-.51.31.29.44.41.57.53Z"/>
  <path class="cls-20" d="m133.78,154.13c.28-.13.66-.2.85-.22.22.17.24.36.32.82.05.27.09.27-.17.34-.43.37-.6.67-.77.97,0,0,0-.04.02-.03-.16,0-.34,0-.78-.01-.09-.57.08-1.16.54-1.87Z"/>
  <path class="cls-25" d="m282.24,147.91c-.14-.22.04-.48.52-.78.13.21-.04.47-.52.78Z"/>
  <path class="cls-50" d="m200.03,66.57c-4.36,4.52-8.66,8.64-12.99,13.1-.04.35-.04.36-.26.44-.49.25-.68.49-1.01.93-.39.42-.57.7-.74.99,0,0-.02-.01-.02,0-.83.26-1.67.5-2.82.83-.61-1.3-.9-2.69-1.19-4.45,0-.38,0-.88,0-1.12,5.44-4.5,11.61-8.11,16.08-13.21,3.3-3.77-.66-10.72-5.67-11.06-1.85-.64-3.28-1.29-5.06-1.97,1.91-2.68,4.81-4.98,8.06-2.91,2.64,1.68,5.41,4.52,6.22,7.38.92,3.24-.27,7.08-.61,11.07Z"/>
  <path class="cls-13" d="m147.41,36.02c-.5-3.4-.45-6.57,3.91-6.99,4.38-.42,4.79,2.97,5.47,6.38.01.36.05.42-.24.45-1.06.72-1.83,1.4-2.6,2.08,0,0,.05.02-.34-.02-1.13,0-1.87.02-2.61.04-.39-.04-.78-.08-1.6-.33-.73-.4-1.02-.61-1.31-.81-.07-.3-.23-.53-.67-.82Z"/>
  <path class="cls-14" d="m148.05,37.13c.32-.09.62.11,1.05.54-.06.25-.27.28-.79.32-.31-.18-.3-.37-.26-.86Z"/>
  <path class="cls-71" d="m142.75,72.77c.71,1.46,1.16,2.68,1.92,4.05.58.66.85,1.16,1.25,1.94-.47,1.08-1.06,1.89-2.12,2.99-.91.28-1.35.27-1.8.27,0,0,0,0-.1-.23-.29-.5-.56-.66-.9-.7-.49-.29-.99-.58-1.74-1.41-.61-1.95-.82-3.41-1.34-4.76-2.74-7.19-.98-10.63,6.25-12.12.96-.2,1.89-.51,2.83-.78-3.34,2.72-4.87,6.22-4.26,10.76Z"/>
  <path class="cls-78" d="m142.06,82.35c.39-.34.83-.33,1.61-.34,1.11.31,1.89.64,3.16,1.22,1.06.42,1.63.57,2.2.73,0,0,.03.47.03.7-2.31-.5-4.63-1.23-7-2.31Z"/>
  <path class="cls-71" d="m148.99,83.67c-.54.14-1.1-.02-1.83-.43.49-.13,1.15,0,1.83.43Z"/>
  <path class="cls-71" d="m172.69,86.02c-.45.33-1.24.64-2.37.91.45-.33,1.24-.63,2.37-.91Z"/>
  <path class="cls-14" d="m151.04,38.31c.69-.36,1.43-.39,2.54-.4-.06,2.35-.98,2.69-2.54.4Z"/>
  <path class="cls-14" d="m154.31,37.96c.4-.69,1.17-1.37,2.26-2.07-.42.68-1.16,1.38-2.26,2.07Z"/>
  <path class="cls-55" d="m147.3,61.99c-1.24.28-2.17.6-3.13.8-7.23,1.49-8.98,4.93-6.25,12.12.51,1.35.73,2.81,1.08,4.63-1.87-.74-3.75-1.88-5.81-3.29-.19-1.6-.19-2.93-.2-4.26-.01-9.34,2.93-12.17,12.51-11.96.98.02,1.95.26,3.2.7-.19.61-.65.93-1.42,1.27Z"/>
  <path class="cls-78" d="m141.12,81.28c.23-.17.49,0,.78.49-.21.13-.47-.04-.78-.49Z"/>
  <path class="cls-78" d="m185.4,82.01c-.2-.28-.02-.57.6-1.05.73-.37.92-.62,1-.94,0,0,0-.02.01-.01.45,0,.9.02,1.67.04-.75.66-1.83,1.31-3.29,1.97Z"/>
  <path class="cls-84" d="m341.7,46.15c1.44.43,2.57,1,3.97,2.06-.05,1.59-.36,2.69-1.06,3.8-1.9,2.3-3.64,4.48-4.89,6.91-2.26,4.41-6.88,7.8-6.05,13.59.45,3.16.88,6.33,1.32,9.5-4.26-3.04-5.29-6.92-3.97-11.31,1.28-4.26,1.13-9.03,2.84-13.06,1.74-4.11,4.96-7.59,7.83-11.49Z"/>
  <path class="cls-12" d="m335.29,82.14c-.73-3.31-1.16-6.47-1.61-9.64-.83-5.79,3.79-9.18,6.05-13.59,1.25-2.43,2.99-4.61,4.89-6.91.38,0,.39,0,.39.39-.77,2.31-1.36,4.34-2.35,6.14-2.97,5.42-6.12,10.81-5.53,17.25.14,1.48,1.86,2.82,3.1,4.5,3.8.13,7.34,0,10.88-.15-2.66,1.29-5.26,2.74-8.01,3.8-1.65.64-3.53.67-5.71,1.02-.87-.86-1.35-1.77-2.11-2.82Z"/>
  <path class="cls-32" d="m334.7,85.87c.3.3.3.47.3.88-1.07.25-2.13.25-3.6,0-.4-.42-.4-.59-.4-.75,1.13-.08,2.27-.17,3.7-.12Z"/>
  <path class="cls-52" d="m330.67,86c.33.17.33.33.33.75-.65.12-1.29-.02-1.97-.44.41-.3.86-.3,1.64-.31Z"/>
  <path class="cls-48" d="m360.05,18.36c3.55-1.55,5.82.43,7.9,3.3-2.58-.76-5.21-1.86-7.9-3.3Z"/>
  <path class="cls-48" d="m369,22.35c.64.43,1.29,1.22,1.97,2.33-.64-.44-1.3-1.21-1.97-2.33Z"/>
  <path class="cls-55" d="m356,44c4.12-4.84,9.03-7.6,15.42-4.92,2.06.87,3.69,2.76,5.55,4.55.03.37.03.37-.35.33-3.75-2.14-6.92-2.63-10.84-.66-3.23,1.62-7.15,1.86-10.66,2.46.36-.76.62-1.26.88-1.75Z"/>
  <path class="cls-12" d="m355.6,44c.14.5-.12.99-.48,1.75-.1.26-.1.27-.41.41-3.44,2.04-6.57,3.94-9.7,5.84,0,0,0,0-.01-.01.31-1.11.62-2.21.97-3.65,3.1-1.68,6.16-3.01,9.63-4.35Z"/>
  <path class="cls-55" d="m380.63,46.95c.33.51.32.97-.08,1.75-1.45-1.35-2.5-3.02-3.55-4.69,0,0,0,0,.02-.02,1.1.96,2.19,1.94,3.62,2.96Z"/>
  <path class="cls-70" d="m380.76,43.17c.55.3.87.77,1.2,1.55-.47-.26-.95-.82-1.2-1.55Z"/>
  <path class="cls-2" d="m351.47,80.08c-3.9.2-7.44.34-11.23-.23-.46-12.28,3.19-21.85,14.13-27.85,2.79-1.34,5.21-2.67,7.63-3.58,0,1.8,0,3.19-.38,4.59-5.12.73-9.05,2.77-11.99,7-1.45,1.67-2.54,3.34-3.62,5.33,0,.77-.01,1.21-.39,1.72-3.77,2.75-3.67,7.05-1.75,9.35,1.29,1.54,6.05,1.07,8.86.2,3.96-1.23,7.54-3.67,11.25-5.27-.68,1.45-1.33,2.57-1.97,3.69-.32.44-.65.88-1.01,1.59-3.08,1.32-6.13,2.36-9.52,3.47Z"/>
  <path class="cls-64" d="m362,48c-2.42,1.33-4.84,2.66-7.6,3.66-.02-2.1.3-3.87.62-5.63,0,0,0-.01,0-.01,3.61-.85,7.54-1.09,10.76-2.72,3.92-1.97,7.09-1.48,10.84.66,1.43,1.72,2.48,3.39,3.89,5.07.26,2.15.16,4.29-.58,6.7-1.4.27-2.15.28-3.2.15-1.1-.38-1.9-.63-2.71-1.26-.36-2.96,4.21-6.36-.43-7.98-3.67-1.29-8.08-2.01-11.6,1.35Z"/>
  <path class="cls-3" d="m374.02,55c.8.25,1.61.51,2.7,1.3.29,1.93.29,3.32.29,4.7-3.39,6.06-7.52,11.39-14.65,14.02.28-1.12.93-2.24,1.72-3.95.4-1.08.66-1.57,1.2-2.26,2.09-2.74,3.9-5.28,6.05-8,.78-2.05,1.23-3.93,1.93-5.81.42,0,.59,0,.76,0Z"/>
  <path class="cls-55" d="m377.32,60.86c-.31-1.24-.31-2.63-.31-4.43.76-.42,1.51-.42,2.64-.42-.42,1.57-1.22,3.14-2.33,4.85Z"/>
  <path class="cls-19" d="m120.11,145.58c-.6.31-1.03.35-1.83.05-1.34-.77-2.31-1.2-3.27-1.64,0,0,0,0,0,0-.1-6.61,4.17-3.68,7.63-3.16.37.16.38.18.38.18-.91,1.43-1.82,2.86-2.9,4.57Z"/>
  <path class="cls-19" d="m123,140.99c.35-.25.7-.5,1.06-.73,0,0,.17.23.26.36-.27.12-.55.25-1.06.38-.24.01-.25,0-.26,0Z"/>
  <path class="cls-33" d="m115.12,144.28c.84.15,1.81.58,2.83,1.36-.86-.13-1.78-.6-2.83-1.36Z"/>
  <path class="cls-56" d="m136.18,149.02c.75-.63,1.5-1.25,2.54-1.95-.5,1.51-1.28,3.08-2.36,4.83-.41.06-.54-.06-.69-.62.15-1.05.33-1.65.51-2.25Z"/>
  <path class="cls-38" d="m136.36,155.86c-.39.16-.58.15-1.04-.11-.28-.42-.29-.59-.29-.76,0,0-.04,0-.04.02.53-.16,1.05-.33,1.58-.51,0,.4,0,.8-.21,1.36Z"/>
  <path class="cls-53" d="m134.77,155.06c.26.1.27.27.27.69-.18.31-.35.36-.78.35-.09-.37.09-.67.51-1.04Z"/>
  <path class="cls-28" d="m135.83,149.01c.17.61,0,1.21-.34,2.09-.41.51-.66.74-1.18.97-.27-.76-.28-1.51-.26-2.63.49-.39.96-.41,1.79-.43Z"/>
  <path class="cls-85" d="m186.79,80.11c.13.24-.06.48-.57.73-.11-.23.08-.47.57-.73Z"/>
  <path class="cls-85" d="m354.71,46.17c0,1.63-.33,3.39-.68,5.5-10.6,6.33-14.25,15.9-14.05,27.91-1-.96-2.72-2.3-2.86-3.78-.6-6.45,2.56-11.84,5.53-17.25.99-1.81,1.58-3.83,2.35-6.14,3.13-2.29,6.26-4.19,9.7-6.23Z"/>
  <path class="cls-42" d="m371,60.99c-1.82,2.54-3.63,5.09-6.12,7.83-5.39,2.02-10.01,4.11-14.83,5.57-4.34,1.32-5.48-.04-4.52-4.47.21-.97.31-1.96.46-2.93,0-.44,0-.88.35-1.68,1.44-1.34,2.56-2.33,4.03-3.34,3.47-1.56,6.64-2.98,9.68-4.62,3.77-2.03,8.71-.45,10.96,3.65Z"/>
  <path class="cls-35" d="m371.33,60.81c-2.57-3.93-7.52-5.51-11.29-3.48-3.05,1.64-6.21,3.07-9.68,4.29-.36-.74-.36-1.18-.36-1.63,2.57-4.22,6.49-6.26,12.01-7.04,4.78-2.27,7.92-.25,11,2.04-.45,1.88-.9,3.76-1.68,5.81Z"/>
  <path class="cls-11" d="m373.26,55c-3.33-2.3-6.47-4.31-10.87-2.05-.39-1.34-.39-2.73-.39-4.54,3.51-3.78,7.92-3.06,11.59-1.77,4.64,1.62.07,5.02.43,7.98-.17.38-.34.38-.76.38Z"/>
  <path class="cls-49" d="m345.61,67.06c.22.91.12,1.9-.09,2.86-.95,4.43.18,5.79,4.52,4.47,4.82-1.46,9.44-3.56,14.56-5.38.14.49-.12.98-.49,1.74-3.85,2.18-7.43,4.62-11.39,5.86-2.8.87-7.57,1.34-8.86-.2-1.93-2.3-2.03-6.6,1.75-9.35Z"/>
  <path class="cls-49" d="m349.63,60c.37.44.37.88.37,1.66-1.11,1.31-2.22,2.3-3.66,3.31.75-1.63,1.83-3.29,3.29-4.97Z"/>
</svg>